<svg width="22" height="24" viewBox="0 0 22 24" fill="none" xmlns="http://www.w3.org/2000/svg">
<path d="M10.9855 0.328613C12.6743 0.328613 14.2524 0.803306 15.5912 1.62885C15.1923 2.055 14.8838 2.56654 14.6962 3.133C13.62 2.46371 12.348 2.07815 10.9855 2.07815C7.1068 2.07815 3.97663 5.19726 3.97607 9.07626V14.2194L2.40597 17.8283H19.5752L17.9951 14.2206L17.9952 9.09125L17.9908 8.82858C17.9865 8.70219 17.9788 8.57668 17.9679 8.45215C18.1674 8.48201 18.3716 8.49749 18.5794 8.49749C18.9738 8.49749 19.3552 8.44172 19.7161 8.33766C19.7285 8.48523 19.7374 8.63389 19.7425 8.78356L19.7474 9.07626V13.8547L21.3597 17.5358C21.4404 17.72 21.482 17.9188 21.482 18.1198C21.482 18.9251 20.8281 19.5778 20.0217 19.5778L14.4903 19.5796C14.4903 21.512 12.9212 23.0786 10.9855 23.0786C9.1191 23.0786 7.59338 21.6219 7.48678 19.7851L7.48031 19.5769L1.96069 19.5778C1.76052 19.5778 1.56249 19.5367 1.3789 19.4572C0.639162 19.1363 0.299954 18.2776 0.621266 17.5391L2.22371 13.8559V9.07613C2.22439 4.23018 6.13979 0.328613 10.9855 0.328613ZM12.7374 19.5769L9.2332 19.5796C9.2332 20.5458 10.0178 21.3291 10.9855 21.3291C11.8965 21.3291 12.645 20.6353 12.7299 19.748L12.7374 19.5769ZM15.7052 3.89461C15.8162 3.27961 16.1204 2.73165 16.5528 2.31557C17.078 1.81019 17.7923 1.49939 18.5794 1.49939C20.1924 1.49939 21.5 2.80486 21.5 4.41526C21.5 5.6903 20.6803 6.77419 19.5383 7.17033C19.238 7.27453 18.9153 7.33114 18.5794 7.33114C18.2896 7.33114 18.0097 7.289 17.7454 7.21053C16.5388 6.85222 15.6587 5.73633 15.6587 4.41526C15.6587 4.23755 15.6747 4.06354 15.7052 3.89461Z" fill="#A8A2A2"/>
</svg>
