<svg width="24" height="24" viewBox="0 0 24 24" fill="none" xmlns="http://www.w3.org/2000/svg">
<path d="M22.3224 12.7002H18.2974C17.1639 12.7002 16.1577 13.3248 15.6488 14.3426L14.6772 16.2625C14.4459 16.7252 13.9833 17.0143 13.4744 17.0143H9.68073C9.32219 17.0143 8.81328 16.9333 8.47787 16.2625L7.50633 14.3541C6.99742 13.3479 5.97962 12.7118 4.85771 12.7118H0.809619C0.358546 12.7118 0 13.0703 0 13.5214V17.2919C0 21.4903 2.52139 24.0002 6.7314 24.0002H16.4237C20.3908 24.0002 22.8313 21.8258 23.132 17.9627V13.5098C23.132 13.0703 22.7734 12.7002 22.3224 12.7002Z" fill="#919191"/>
<path d="M12.4334 0.867449C12.4334 0.393244 12.0401 0 11.5659 0C11.0917 0 10.6985 0.393244 10.6985 0.867449V3.18065H12.4334V0.867449Z" fill="#919191"/>
<path d="M23.132 9.9005V11.1034C22.8775 11.0108 22.5999 10.9646 22.3224 10.9646H18.2974C16.5047 10.9646 14.897 11.9592 14.0989 13.5554L13.2315 15.2671H9.92362L9.05617 13.5669C8.25811 11.9592 6.65044 10.9646 4.85771 10.9646H0.809619C0.532035 10.9646 0.254452 11.0108 0 11.1034V9.9005C0 5.69048 2.50982 3.18066 6.71984 3.18066H10.6985V6.87021L9.86579 6.03746C9.53037 5.70205 8.97521 5.70205 8.63979 6.03746C8.30438 6.37288 8.30438 6.92804 8.63979 7.26346L10.953 9.57665C10.9646 9.58822 10.9761 9.58822 10.9761 9.59979C11.0571 9.66918 11.138 9.72701 11.2306 9.76171C11.3462 9.80797 11.4503 9.83111 11.566 9.83111C11.6816 9.83111 11.7857 9.80797 11.8898 9.76171C11.9939 9.72701 12.098 9.65762 12.179 9.57665L14.4922 7.26346C14.8276 6.92804 14.8276 6.37288 14.4922 6.03746C14.1568 5.70205 13.6016 5.70205 13.2662 6.03746L12.4334 6.87021V3.18066H16.4121C20.6222 3.18066 23.132 5.69048 23.132 9.9005Z" fill="#919191"/>
</svg>
