<svg width="24" height="24" viewBox="0 0 24 24" fill="none" xmlns="http://www.w3.org/2000/svg">
<path d="M22.3648 16.3491L19.6983 5.43756C19.6281 5.1535 19.4796 4.89683 19.271 4.69901C19.0623 4.50119 18.8026 4.3708 18.5236 4.32381L15.2653 3.76881C14.9061 3.70887 14.5382 3.78968 14.2332 3.99553C13.9283 4.20138 13.708 4.51756 13.6153 4.88256L13.5963 4.96225C13.584 5.01288 13.5821 5.06561 13.5906 5.11707C13.5991 5.16853 13.6178 5.21758 13.6456 5.26109C13.6734 5.30459 13.7097 5.3416 13.7521 5.36973C13.7945 5.39785 13.8421 5.41649 13.8918 5.42444C14.6395 5.53828 15.3771 5.71448 16.0975 5.95131C16.2776 6.00769 16.4302 6.13303 16.5245 6.3019C16.6189 6.47078 16.6477 6.67054 16.6053 6.86069C16.5809 6.95977 16.5372 7.05264 16.477 7.13357C16.4167 7.21451 16.3412 7.2818 16.2549 7.33133C16.1687 7.38085 16.0736 7.41155 15.9755 7.42154C15.8774 7.43154 15.7784 7.42061 15.6845 7.38944C13.0115 6.53892 10.1547 6.53566 7.4799 7.38006C7.29889 7.44321 7.10138 7.43159 6.92841 7.34762C6.75543 7.26365 6.62028 7.11377 6.55101 6.92912C6.51809 6.83437 6.5039 6.73372 6.50928 6.63315C6.51467 6.53259 6.53953 6.43418 6.58237 6.3438C6.62521 6.25342 6.68515 6.17292 6.75863 6.10709C6.83211 6.04127 6.91761 5.99148 7.01004 5.96069C7.73942 5.71964 8.48642 5.54031 9.24372 5.42444C9.29345 5.41649 9.34103 5.39785 9.38343 5.36973C9.42582 5.3416 9.46208 5.30459 9.4899 5.26109C9.51771 5.21758 9.53646 5.16853 9.54495 5.11707C9.55344 5.06561 9.55148 5.01288 9.53919 4.96225L9.52022 4.88256C9.42746 4.51725 9.20689 4.20087 8.9015 3.99513C8.59612 3.78939 8.22783 3.70904 7.86845 3.76975L4.60829 4.32475C4.32941 4.37167 4.06977 4.50192 3.86114 4.69956C3.65251 4.89721 3.50394 5.15367 3.43361 5.43756L0.767113 16.3491C0.683505 16.6921 0.719893 17.0547 0.8698 17.3725C1.01971 17.6903 1.27341 17.9425 1.58577 18.0844L7.63984 20.8697C7.82188 20.9537 8.01854 20.9982 8.21775 21.0004C8.41695 21.0026 8.61449 20.9625 8.79822 20.8826C8.98195 20.8027 9.14799 20.6847 9.28613 20.5357C9.42428 20.3868 9.53161 20.2102 9.60154 20.0166L9.91689 19.1307C9.93568 19.0776 9.94267 19.0208 9.93732 18.9646C9.93198 18.9083 9.91444 18.854 9.88602 18.8058C9.85761 18.7576 9.81904 18.7166 9.77322 18.686C9.7274 18.6554 9.67551 18.636 9.62142 18.6291C8.74361 18.5188 7.87757 18.3243 7.03443 18.0479C6.85508 17.9913 6.70306 17.8663 6.60899 17.6981C6.51493 17.5299 6.48581 17.3309 6.52752 17.1413C6.55169 17.0419 6.59523 16.9488 6.65545 16.8676C6.71568 16.7863 6.7913 16.7188 6.87767 16.6691C6.96403 16.6193 7.0593 16.5885 7.1576 16.5785C7.25589 16.5684 7.35513 16.5794 7.44918 16.6107C10.1322 17.4632 12.9997 17.4632 15.6827 16.6107C15.7767 16.5795 15.8757 16.5686 15.9739 16.5787C16.072 16.5887 16.1671 16.6195 16.2534 16.6691C16.3396 16.7188 16.4152 16.7862 16.4754 16.8672C16.5356 16.9482 16.5792 17.0412 16.6035 17.1404C16.6457 17.3301 16.6168 17.5294 16.5227 17.6979C16.4285 17.8664 16.2762 17.9915 16.0966 18.0479C15.2538 18.3243 14.388 18.5189 13.5105 18.6291C13.4564 18.636 13.4045 18.6554 13.3587 18.686C13.3129 18.7166 13.2743 18.7576 13.2459 18.8058C13.2175 18.854 13.1999 18.9083 13.1946 18.9646C13.1892 19.0208 13.1962 19.0776 13.215 19.1307L13.5304 20.0166C13.6004 20.2101 13.7078 20.3866 13.846 20.5355C13.9841 20.6843 14.1501 20.8023 14.3338 20.8822C14.5175 20.9621 14.715 21.0022 14.9142 21.0001C15.1134 20.9979 15.31 20.9536 15.4921 20.8697L21.5461 18.0844C21.8585 17.9425 22.1122 17.6903 22.2621 17.3725C22.412 17.0547 22.4484 16.6921 22.3648 16.3491ZM8.31302 14.2501C8.09856 14.2501 7.88892 14.1841 7.71061 14.0605C7.53229 13.9368 7.39331 13.7611 7.31124 13.5556C7.22917 13.35 7.2077 13.1238 7.24954 12.9056C7.29138 12.6874 7.39465 12.4869 7.54629 12.3296C7.69794 12.1722 7.89114 12.0651 8.10148 12.0217C8.31181 11.9783 8.52983 12.0005 8.72796 12.0857C8.9261 12.1708 9.09544 12.315 9.21459 12.5C9.33373 12.685 9.39733 12.9026 9.39733 13.1251C9.39733 13.4234 9.28309 13.7096 9.07974 13.9206C8.87639 14.1315 8.60059 14.2501 8.31302 14.2501ZM14.8189 14.2501C14.6044 14.2501 14.3948 14.1841 14.2165 14.0605C14.0382 13.9368 13.8992 13.7611 13.8171 13.5556C13.735 13.35 13.7136 13.1238 13.7554 12.9056C13.7972 12.6874 13.9005 12.4869 14.0522 12.3296C14.2038 12.1722 14.397 12.0651 14.6073 12.0217C14.8177 11.9783 15.0357 12.0005 15.2338 12.0857C15.432 12.1708 15.6013 12.315 15.7205 12.5C15.8396 12.685 15.9032 12.9026 15.9032 13.1251C15.9032 13.4234 15.789 13.7096 15.5856 13.9206C15.3823 14.1315 15.1065 14.2501 14.8189 14.2501Z" fill="url(#paint0_linear_456_2951)"/>
<defs>
<linearGradient id="paint0_linear_456_2951" x1="22.759" y1="5.62974" x2="10.2939" y2="23.4547" gradientUnits="userSpaceOnUse">
<stop stop-color="#1E2381"/>
<stop offset="1" stop-color="#912BC1"/>
</linearGradient>
</defs>
</svg>
