<svg width="25" height="24" viewBox="0 0 25 24" fill="none" xmlns="http://www.w3.org/2000/svg">
<path d="M23.6687 13.0608C24.267 12.5137 25.698 9.79096 23.0363 7.35239C22.141 6.53101 20.116 5.65137 17.8295 5.65137C14.3606 5.65137 9.93826 7.41492 8.21876 11.3641C5.74183 17.0484 10.4186 22.7043 16.154 22.7043C18.7958 22.7043 21.6891 21.0757 22.8658 19.4244C22.9397 19.3207 23.0207 19.2226 23.0974 19.1217C23.3873 18.7451 23.9515 17.6978 22.0543 16.8992C21.2116 16.5439 21.1079 15.7254 21.2116 15.3175C21.5229 14.0854 22.583 14.0542 23.6687 13.0608ZM19.4239 19.2255C18.5045 19.5381 17.5524 19.1914 17.2966 18.4496C17.0408 17.7092 17.578 16.8551 18.4974 16.5425C19.4168 16.2298 20.3689 16.5766 20.6247 17.3184C20.8805 18.0588 20.3434 18.9128 19.4239 19.2255Z" fill="url(#paint0_radial_456_2926)"/>
<mask id="mask0_456_2926" style="mask-type:luminance" maskUnits="userSpaceOnUse" x="3" y="2" width="18" height="19">
<path d="M17.1682 6.31372C17.2836 5.51126 16.6624 2.49871 13.0579 2.30227C11.8448 2.23531 9.7214 2.84002 7.95393 4.29058C5.27252 6.49121 2.97281 10.66 4.14899 14.8036C5.84044 20.7689 13.0437 22.1739 17.4772 18.5354C19.5193 16.8594 20.7226 13.765 20.5846 11.7421C20.5759 11.6151 20.5763 11.4879 20.5716 11.3612C20.5568 10.8862 20.3285 9.71869 18.3553 10.3049C17.4786 10.5649 16.8791 9.99795 16.7005 9.61687C16.1595 8.46704 16.9591 7.77034 17.1682 6.31372ZM17.7978 13.7718C17.2855 14.5968 16.3295 14.9328 15.6612 14.5217C14.9937 14.1116 14.8672 13.1106 15.3795 12.2857C15.8919 11.4607 16.8479 11.1247 17.5162 11.5359C18.1836 11.9459 18.3102 12.9469 17.7978 13.7718Z" fill="white"/>
</mask>
<g mask="url(#mask0_456_2926)">
<path opacity="0.2" d="M11.3522 19.2126C12.3259 18.4135 12.953 17.5679 12.7528 17.3241C12.5527 17.0802 11.6011 17.5303 10.6273 18.3294C9.65361 19.1285 9.02652 19.9741 9.22667 20.218C9.42683 20.4618 10.3784 20.0117 11.3522 19.2126Z" fill="#FFA726"/>
</g>
<mask id="mask1_456_2926" style="mask-type:luminance" maskUnits="userSpaceOnUse" x="7" y="5" width="18" height="18">
<path d="M23.6687 13.0608C24.267 12.5137 25.698 9.79096 23.0363 7.35239C22.141 6.53101 20.116 5.65137 17.8295 5.65137C14.3606 5.65137 9.93826 7.41492 8.21876 11.3641C5.74183 17.0484 10.4186 22.7043 16.154 22.7043C18.7958 22.7043 21.6891 21.0757 22.8658 19.4244C22.9397 19.3207 23.0207 19.2226 23.0974 19.1217C23.3873 18.7451 23.9515 17.6978 22.0543 16.8992C21.2116 16.5439 21.1079 15.7254 21.2116 15.3175C21.5229 14.0854 22.583 14.0542 23.6687 13.0608ZM19.4239 19.2255C18.5045 19.5381 17.5524 19.1914 17.2966 18.4496C17.0408 17.7092 17.578 16.8551 18.4974 16.5425C19.4168 16.2298 20.3689 16.5766 20.6247 17.3184C20.8805 18.0588 20.3434 18.9128 19.4239 19.2255Z" fill="white"/>
</mask>
<g mask="url(#mask1_456_2926)">
<path opacity="0.2" d="M8.61951 19.5439C8.61951 19.5439 12.0372 16.1148 13.1769 16.6861C14.3166 17.2573 10.3291 20.6864 10.3291 20.6864H9.75921L10.3291 21.2577C10.3291 21.2577 15.4549 17.2573 14.8864 15.5421C14.318 13.8269 8.55414 18.7694 8.17188 18.9925L8.61951 19.5439Z" fill="#FFA726"/>
</g>
<mask id="mask2_456_2926" style="mask-type:luminance" maskUnits="userSpaceOnUse" x="7" y="5" width="18" height="18">
<path d="M23.6687 13.0608C24.267 12.5137 25.698 9.79096 23.0363 7.35239C22.141 6.53101 20.116 5.65137 17.8295 5.65137C14.3606 5.65137 9.93826 7.41492 8.21876 11.3641C5.74183 17.0484 10.4186 22.7043 16.154 22.7043C18.7958 22.7043 21.6891 21.0757 22.8658 19.4244C22.9397 19.3207 23.0207 19.2226 23.0974 19.1217C23.3873 18.7451 23.9515 17.6978 22.0543 16.8992C21.2116 16.5439 21.1079 15.7254 21.2116 15.3175C21.5229 14.0854 22.583 14.0542 23.6687 13.0608ZM19.4239 19.2255C18.5045 19.5381 17.5524 19.1914 17.2966 18.4496C17.0408 17.7092 17.578 16.8551 18.4974 16.5425C19.4168 16.2298 20.3689 16.5766 20.6247 17.3184C20.8805 18.0588 20.3434 18.9128 19.4239 19.2255Z" fill="white"/>
</mask>
<g mask="url(#mask2_456_2926)">
<path opacity="0.2" d="M7.18555 17.5203C7.18555 17.5203 11.9532 13.7118 16.6485 13.2599C16.6485 13.2599 18.142 12.9274 17.8109 14.0685C17.4784 15.2111 15.7717 19.2569 11.5255 22.0407L11.0281 21.6841C11.0281 21.6841 18.2856 16.6151 15.9379 14.3058C15.9379 14.3058 15.6765 13.8781 14.136 14.4963C12.5956 15.1144 7.39871 18.6145 7.39871 18.6145L7.18555 17.5203Z" fill="#FFA726"/>
</g>
<mask id="mask3_456_2926" style="mask-type:luminance" maskUnits="userSpaceOnUse" x="7" y="5" width="18" height="18">
<path d="M23.6687 13.0608C24.267 12.5137 25.698 9.79096 23.0363 7.35239C22.141 6.53101 20.116 5.65137 17.8295 5.65137C14.3606 5.65137 9.93826 7.41492 8.21876 11.3641C5.74183 17.0484 10.4186 22.7043 16.154 22.7043C18.7958 22.7043 21.6891 21.0757 22.8658 19.4244C22.9397 19.3207 23.0207 19.2226 23.0974 19.1217C23.3873 18.7451 23.9515 17.6978 22.0543 16.8992C21.2116 16.5439 21.1079 15.7254 21.2116 15.3175C21.5229 14.0854 22.583 14.0542 23.6687 13.0608ZM19.4239 19.2255C18.5045 19.5381 17.5524 19.1914 17.2966 18.4496C17.0408 17.7092 17.578 16.8551 18.4974 16.5425C19.4168 16.2298 20.3689 16.5766 20.6247 17.3184C20.8805 18.0588 20.3434 18.9128 19.4239 19.2255Z" fill="white"/>
</mask>
<g mask="url(#mask3_456_2926)">
<path opacity="0.2" d="M6.49927 16.241C6.49927 16.241 9.934 13.8166 13.8349 12.532C17.7357 11.2473 19.3074 8.73486 19.3074 8.73486C19.3074 8.73486 19.3358 11.0128 13.2238 13.4088C7.11175 15.8047 7.02364 17.0012 7.02364 17.0012L6.49927 16.241Z" fill="#FFA726"/>
</g>
<mask id="mask4_456_2926" style="mask-type:luminance" maskUnits="userSpaceOnUse" x="7" y="5" width="18" height="18">
<path d="M23.6687 13.0608C24.267 12.5137 25.698 9.79096 23.0363 7.35239C22.141 6.53101 20.116 5.65137 17.8295 5.65137C14.3606 5.65137 9.93826 7.41492 8.21876 11.3641C5.74183 17.0484 10.4186 22.7043 16.154 22.7043C18.7958 22.7043 21.6891 21.0757 22.8658 19.4244C22.9397 19.3207 23.0207 19.2226 23.0974 19.1217C23.3873 18.7451 23.9515 17.6978 22.0543 16.8992C21.2116 16.5439 21.1079 15.7254 21.2116 15.3175C21.5229 14.0854 22.583 14.0542 23.6687 13.0608ZM19.4239 19.2255C18.5045 19.5381 17.5524 19.1914 17.2966 18.4496C17.0408 17.7092 17.578 16.8551 18.4974 16.5425C19.4168 16.2298 20.3689 16.5766 20.6247 17.3184C20.8805 18.0588 20.3434 18.9128 19.4239 19.2255Z" fill="white"/>
</mask>
<g mask="url(#mask4_456_2926)">
<path opacity="0.2" d="M16.2863 5.57726C16.2863 5.57726 10.7554 12.1199 7.8735 10.6008L7.34912 11.6225C7.34912 11.6225 12.2106 12.2364 17.0124 5.51758L16.2863 5.57726Z" fill="#FFA726"/>
</g>
<mask id="mask5_456_2926" style="mask-type:luminance" maskUnits="userSpaceOnUse" x="7" y="5" width="18" height="18">
<path d="M23.6687 13.0608C24.267 12.5137 25.698 9.79096 23.0363 7.35239C22.141 6.53101 20.116 5.65137 17.8295 5.65137C14.3606 5.65137 9.93826 7.41492 8.21876 11.3641C5.74183 17.0484 10.4186 22.7043 16.154 22.7043C18.7958 22.7043 21.6891 21.0757 22.8658 19.4244C22.9397 19.3207 23.0207 19.2226 23.0974 19.1217C23.3873 18.7451 23.9515 17.6978 22.0543 16.8992C21.2116 16.5439 21.1079 15.7254 21.2116 15.3175C21.5229 14.0854 22.583 14.0542 23.6687 13.0608ZM19.4239 19.2255C18.5045 19.5381 17.5524 19.1914 17.2966 18.4496C17.0408 17.7092 17.578 16.8551 18.4974 16.5425C19.4168 16.2298 20.3689 16.5766 20.6247 17.3184C20.8805 18.0588 20.3434 18.9128 19.4239 19.2255Z" fill="white"/>
</mask>
<g mask="url(#mask5_456_2926)">
<path opacity="0.2" d="M7.03212 13.1547C7.03212 13.1547 11.1944 12.5706 13.6685 10.9051C16.1426 9.23965 17.3932 6.2625 21.2656 6.40745L22.0514 6.72861C22.0514 6.72861 19.5191 6.17297 17.423 8.65701C15.3269 11.141 14.804 11.3443 12.9409 12.0164C11.0779 12.6886 6.62427 13.6805 6.62427 13.6805L7.03212 13.1547Z" fill="#FFA726"/>
</g>
<mask id="mask6_456_2926" style="mask-type:luminance" maskUnits="userSpaceOnUse" x="7" y="5" width="18" height="18">
<path d="M23.6687 13.0608C24.267 12.5137 25.698 9.79096 23.0363 7.35239C22.141 6.53101 20.116 5.65137 17.8295 5.65137C14.3606 5.65137 9.93826 7.41492 8.21876 11.3641C5.74183 17.0484 10.4186 22.7043 16.154 22.7043C18.7958 22.7043 21.6891 21.0757 22.8658 19.4244C22.9397 19.3207 23.0207 19.2226 23.0974 19.1217C23.3873 18.7451 23.9515 17.6978 22.0543 16.8992C21.2116 16.5439 21.1079 15.7254 21.2116 15.3175C21.5229 14.0854 22.583 14.0542 23.6687 13.0608ZM19.4239 19.2255C18.5045 19.5381 17.5524 19.1914 17.2966 18.4496C17.0408 17.7092 17.578 16.8551 18.4974 16.5425C19.4168 16.2298 20.3689 16.5766 20.6247 17.3184C20.8805 18.0588 20.3434 18.9128 19.4239 19.2255Z" fill="white"/>
</mask>
<g mask="url(#mask6_456_2926)">
<path opacity="0.2" d="M23.8434 7.96191C23.8434 7.96191 20.8606 9.66152 19.9397 10.8083C19.9397 10.8083 23.5492 8.99788 24.6179 9.21956L23.8434 7.96191Z" fill="#FFA726"/>
</g>
<mask id="mask7_456_2926" style="mask-type:luminance" maskUnits="userSpaceOnUse" x="7" y="5" width="18" height="18">
<path d="M23.6687 13.0608C24.267 12.5137 25.698 9.79096 23.0363 7.35239C22.141 6.53101 20.116 5.65137 17.8295 5.65137C14.3606 5.65137 9.93826 7.41492 8.21876 11.3641C5.74183 17.0484 10.4186 22.7043 16.154 22.7043C18.7958 22.7043 21.6891 21.0757 22.8658 19.4244C22.9397 19.3207 23.0207 19.2226 23.0974 19.1217C23.3873 18.7451 23.9515 17.6978 22.0543 16.8992C21.2116 16.5439 21.1079 15.7254 21.2116 15.3175C21.5229 14.0854 22.583 14.0542 23.6687 13.0608ZM19.4239 19.2255C18.5045 19.5381 17.5524 19.1914 17.2966 18.4496C17.0408 17.7092 17.578 16.8551 18.4974 16.5425C19.4168 16.2298 20.3689 16.5766 20.6247 17.3184C20.8805 18.0588 20.3434 18.9128 19.4239 19.2255Z" fill="white"/>
</mask>
<g mask="url(#mask7_456_2926)">
<path opacity="0.2" d="M24.6251 10.0835C24.6251 10.0835 19.046 12.1057 17.7002 15.7507C16.3545 19.3958 14.5582 20.5014 14.1489 20.706C13.7411 20.9107 11.4958 22.876 11.4546 23.0408L13.1286 23.3691C13.1286 23.3691 16.8831 20.1745 17.2909 17.9633C17.6988 15.7522 19.8475 12.667 25.1964 10.3293L24.6251 10.0835Z" fill="#FFA726"/>
</g>
<mask id="mask8_456_2926" style="mask-type:luminance" maskUnits="userSpaceOnUse" x="7" y="5" width="18" height="18">
<path d="M23.6687 13.0608C24.267 12.5137 25.698 9.79096 23.0363 7.35239C22.141 6.53101 20.116 5.65137 17.8295 5.65137C14.3606 5.65137 9.93826 7.41492 8.21876 11.3641C5.74183 17.0484 10.4186 22.7043 16.154 22.7043C18.7958 22.7043 21.6891 21.0757 22.8658 19.4244C22.9397 19.3207 23.0207 19.2226 23.0974 19.1217C23.3873 18.7451 23.9515 17.6978 22.0543 16.8992C21.2116 16.5439 21.1079 15.7254 21.2116 15.3175C21.5229 14.0854 22.583 14.0542 23.6687 13.0608ZM19.4239 19.2255C18.5045 19.5381 17.5524 19.1914 17.2966 18.4496C17.0408 17.7092 17.578 16.8551 18.4974 16.5425C19.4168 16.2298 20.3689 16.5766 20.6247 17.3184C20.8805 18.0588 20.3434 18.9128 19.4239 19.2255Z" fill="white"/>
</mask>
<g mask="url(#mask8_456_2926)">
<path opacity="0.2" d="M18.6466 18.7153C18.6466 18.7153 17.136 22.3192 14.3606 24.5716C14.3606 24.5716 17.5438 23.0965 19.5447 19.0422L18.6466 18.7153Z" fill="#FFA726"/>
</g>
<mask id="mask9_456_2926" style="mask-type:luminance" maskUnits="userSpaceOnUse" x="7" y="5" width="18" height="18">
<path d="M23.6687 13.0608C24.267 12.5137 25.698 9.79096 23.0363 7.35239C22.141 6.53101 20.116 5.65137 17.8295 5.65137C14.3606 5.65137 9.93826 7.41492 8.21876 11.3641C5.74183 17.0484 10.4186 22.7043 16.154 22.7043C18.7958 22.7043 21.6891 21.0757 22.8658 19.4244C22.9397 19.3207 23.0207 19.2226 23.0974 19.1217C23.3873 18.7451 23.9515 17.6978 22.0543 16.8992C21.2116 16.5439 21.1079 15.7254 21.2116 15.3175C21.5229 14.0854 22.583 14.0542 23.6687 13.0608ZM19.4239 19.2255C18.5045 19.5381 17.5524 19.1914 17.2966 18.4496C17.0408 17.7092 17.578 16.8551 18.4974 16.5425C19.4168 16.2298 20.3689 16.5766 20.6247 17.3184C20.8805 18.0588 20.3434 18.9128 19.4239 19.2255Z" fill="white"/>
</mask>
<g mask="url(#mask9_456_2926)">
<path opacity="0.2" d="M22.1695 16.9302C22.1695 16.9302 20.9815 21.7647 18.8342 22.9599C18.8342 22.9599 21.8043 22.6998 23.1742 16.7739L22.1695 16.9302Z" fill="#FFA726"/>
</g>
<path opacity="0.2" d="M17.8295 6.07769C19.9199 6.07769 21.8867 6.87775 22.7492 7.66787C23.69 8.53046 24.1675 9.50106 24.1661 10.5541C24.1646 11.6597 23.6275 12.5237 23.3816 12.7468C23.0178 13.0793 22.6583 13.2939 22.3087 13.5014C21.6564 13.8908 21.0397 14.2588 20.7995 15.2138C20.6517 15.8021 20.8194 16.8409 21.8909 17.2928C22.5105 17.5543 22.8814 17.857 22.9638 18.171C23.0377 18.4496 22.8686 18.7238 22.762 18.8617C22.7379 18.8929 22.7137 18.9228 22.6896 18.954C22.6341 19.0251 22.5759 19.0976 22.5205 19.1771C21.4561 20.6679 18.7205 22.2779 16.154 22.2779C13.3687 22.2779 10.6971 20.8426 9.18367 18.532C7.80097 16.4203 7.59207 13.8709 8.60956 11.5346C9.35989 9.81227 10.7284 8.38409 12.5687 7.40355C14.1731 6.54806 16.0418 6.07769 17.8295 6.07769ZM18.7418 19.7669C19.0175 19.7669 19.2932 19.72 19.5618 19.629C20.1743 19.4216 20.6716 18.9995 20.9303 18.4737C21.1363 18.0531 21.1704 17.5927 21.0283 17.1791C20.7811 16.4643 20.0563 16.001 19.1809 16.001C18.9052 16.001 18.6296 16.0479 18.361 16.1389C17.7485 16.3464 17.2511 16.7684 16.9925 17.2942C16.7864 17.7149 16.7523 18.1753 16.8944 18.5888C17.1417 19.305 17.8664 19.7669 18.7418 19.7669ZM17.8295 5.65137C14.3606 5.65137 9.93826 7.41492 8.21876 11.3641C5.74183 17.0484 10.4186 22.7043 16.154 22.7043C18.7958 22.7043 21.6891 21.0757 22.8658 19.4244C22.9397 19.3207 23.0207 19.2226 23.0974 19.1217C23.3873 18.7451 23.9515 17.6978 22.0543 16.8992C21.2116 16.5439 21.1079 15.7254 21.2116 15.3175C21.5214 14.0854 22.5816 14.0528 23.6673 13.0608C24.2655 12.5137 25.6966 9.79096 23.0349 7.35239C22.141 6.53101 20.116 5.65137 17.8295 5.65137ZM18.7418 19.3406C18.0739 19.3406 17.4899 19.0066 17.2966 18.451C17.0408 17.7106 17.578 16.8565 18.4974 16.5439C18.7262 16.4657 18.9578 16.4288 19.1795 16.4288C19.8474 16.4288 20.4315 16.7627 20.6247 17.3198C20.8805 18.0602 20.3434 18.9142 19.4239 19.2269C19.1951 19.3036 18.9635 19.3406 18.7418 19.3406Z" fill="#424242"/>
<path d="M16.2933 9.85671C17.2538 9.55698 17.8376 8.68964 17.5972 7.91945C17.3569 7.14927 16.3834 6.7679 15.4229 7.06763C14.4625 7.36737 13.8787 8.23471 14.119 9.00489C14.3594 9.77508 15.3328 10.1564 16.2933 9.85671Z" fill="#C62828"/>
<path d="M17.325 7.74574C17.5538 8.49464 16.974 9.33876 16.0275 9.63008C15.0811 9.9214 14.1276 9.5505 13.8988 8.80159C13.67 8.05269 14.2498 7.20857 15.1962 6.91725C16.1426 6.62593 17.0948 6.99683 17.325 7.74574Z" fill="url(#paint1_radial_456_2926)"/>
<path d="M12.3642 12.9329C13.3337 12.6303 13.9237 11.7571 13.6819 10.9824C13.4401 10.2077 12.4583 9.82495 11.4888 10.1275C10.5193 10.43 9.92938 11.3033 10.1711 12.078C10.4129 12.8527 11.3948 13.2354 12.3642 12.9329Z" fill="#1565C0"/>
<path d="M13.4455 10.7882C13.6814 11.557 13.0846 12.421 12.1154 12.7208C11.1462 13.0207 10.1685 12.6398 9.93261 11.871C9.69672 11.1022 10.2936 10.2382 11.2627 9.93837C12.2319 9.63853 13.2096 10.0194 13.4455 10.7882Z" fill="url(#paint2_radial_456_2926)"/>
<path d="M11.3229 17.2288C12.3193 16.9179 12.9248 16.0177 12.6754 15.2183C12.4259 14.4189 11.4159 14.023 10.4195 14.3339C9.42301 14.6449 8.81747 15.545 9.06694 16.3444C9.3164 17.1438 10.3264 17.5398 11.3229 17.2288Z" fill="#F9A825"/>
<path d="M12.4451 15.1127C12.6739 15.8616 12.0941 16.7057 11.1476 16.997C10.2012 17.2884 9.24767 16.9175 9.01888 16.1686C8.79008 15.4197 9.36988 14.5755 10.3163 14.2842C11.2628 13.9915 12.2163 14.3624 12.4451 15.1127Z" fill="url(#paint3_radial_456_2926)"/>
<path d="M14.2719 21.1396C15.2218 20.8428 15.7956 19.9742 15.5535 19.1996C15.3114 18.425 14.3451 18.0377 13.3952 18.3346C12.4453 18.6314 11.8715 19.5 12.1136 20.2746C12.3557 21.0492 13.322 21.4365 14.2719 21.1396Z" fill="#558B2F"/>
<path d="M15.3113 19.0675C15.5401 19.8164 14.9603 20.6605 14.0139 20.9519C13.0674 21.2432 12.1139 20.8723 11.8851 20.1234C11.6563 19.3745 12.2361 18.5303 13.1825 18.239C14.129 17.9477 15.0825 18.3186 15.3113 19.0675Z" fill="url(#paint4_radial_456_2926)"/>
<defs>
<radialGradient id="paint0_radial_456_2926" cx="0" cy="0" r="1" gradientUnits="userSpaceOnUse" gradientTransform="translate(15.5907 8.03437) rotate(90) scale(15.1259 9.92865)">
<stop stop-color="#FFCC80"/>
<stop offset="0.2942" stop-color="#FFCB7D"/>
<stop offset="0.4879" stop-color="#FFC774"/>
<stop offset="0.6526" stop-color="#FFC166"/>
<stop offset="0.8012" stop-color="#FFB850"/>
<stop offset="0.9375" stop-color="#FFAD35"/>
<stop offset="1" stop-color="#FFA726"/>
</radialGradient>
<radialGradient id="paint1_radial_456_2926" cx="0" cy="0" r="1" gradientUnits="userSpaceOnUse" gradientTransform="translate(15.3791 7.04856) rotate(90) scale(2.42989 1.89483)">
<stop stop-color="#EF5350"/>
<stop offset="0.3459" stop-color="#E94B49"/>
<stop offset="0.8869" stop-color="#D73534"/>
<stop offset="1" stop-color="#D32F2F"/>
</radialGradient>
<radialGradient id="paint2_radial_456_2926" cx="0" cy="0" r="1" gradientUnits="userSpaceOnUse" gradientTransform="translate(11.4505 10.0728) rotate(90) scale(2.89714 2.25919)">
<stop stop-color="#42A5F5"/>
<stop offset="0.2859" stop-color="#3B9DEF"/>
<stop offset="0.7328" stop-color="#2787DE"/>
<stop offset="1" stop-color="#1976D2"/>
</radialGradient>
<radialGradient id="paint3_radial_456_2926" cx="0" cy="0" r="1" gradientUnits="userSpaceOnUse" gradientTransform="translate(10.5 14.4144) rotate(90) scale(2.98511 2.32779)">
<stop stop-color="#FFEB3B"/>
<stop offset="0.436" stop-color="#FFEB3B"/>
<stop offset="0.6129" stop-color="#FEE238"/>
<stop offset="0.8995" stop-color="#FCCA30"/>
<stop offset="1" stop-color="#FBC02D"/>
</radialGradient>
<radialGradient id="paint4_radial_456_2926" cx="0" cy="0" r="1" gradientUnits="userSpaceOnUse" gradientTransform="translate(13.3657 18.3698) rotate(90) scale(2.42989 1.89483)">
<stop stop-color="#8BC34A"/>
<stop offset="0.3459" stop-color="#83BB46"/>
<stop offset="0.8869" stop-color="#6DA53B"/>
<stop offset="1" stop-color="#689F38"/>
</radialGradient>
</defs>
</svg>
