<svg width="24" height="24" viewBox="0 0 24 24" fill="none" xmlns="http://www.w3.org/2000/svg">
<path d="M11.5257 23.9999C17.8911 23.9999 23.0514 18.6323 23.0514 12.011C23.0514 5.38962 17.8911 0.0219727 11.5257 0.0219727C5.16022 0.0219727 0 5.38962 0 12.011C0 18.6323 5.16022 23.9999 11.5257 23.9999Z" fill="url(#paint0_radial_456_2968)"/>
<path opacity="0.2" d="M11.5257 0.623225C17.5621 0.623225 22.4733 5.73187 22.4733 12.011C22.4733 18.29 17.5621 23.3987 11.5257 23.3987C5.48924 23.3987 0.578018 18.29 0.578018 12.011C0.578018 5.73187 5.48924 0.623225 11.5257 0.623225ZM11.5257 0.0219727C5.15977 0.0219727 0 5.39116 0 12.011C0 18.6307 5.15977 23.9999 11.5257 23.9999C17.8916 23.9999 23.0514 18.6327 23.0514 12.011C23.0514 5.38915 17.8897 0.0219727 11.5257 0.0219727Z" fill="#434343"/>
<path d="M11.5258 20.3604C15.9588 20.3604 19.5525 16.6223 19.5525 12.011C19.5525 7.39977 15.9588 3.66162 11.5258 3.66162C7.09272 3.66162 3.49902 7.39977 3.49902 12.011C3.49902 16.6223 7.09272 20.3604 11.5258 20.3604Z" fill="#FEFCE9"/>
<path d="M11.5257 17.364C14.3679 17.364 16.672 14.9673 16.672 12.0109C16.672 9.0544 14.3679 6.65771 11.5257 6.65771C8.68347 6.65771 6.37939 9.0544 6.37939 12.0109C6.37939 14.9673 8.68347 17.364 11.5257 17.364Z" fill="url(#paint1_radial_456_2968)"/>
<path d="M11.5257 13.6165C12.3781 13.6165 13.069 12.8977 13.069 12.0111C13.069 11.1245 12.3781 10.4058 11.5257 10.4058C10.6734 10.4058 9.98242 11.1245 9.98242 12.0111C9.98242 12.8977 10.6734 13.6165 11.5257 13.6165Z" fill="#FEFCE9"/>
<path d="M20.3983 2.8421L20.4657 1.15057C20.4966 0.388985 19.8453 -0.150138 19.1228 0.0382545L17.7818 0.384977C17.3194 0.505227 16.9495 0.896041 16.8435 1.37905L15.3811 8.06097L15.3927 8.05496L20.4022 2.8441L20.3983 2.8421Z" fill="#09BCD4"/>
<path d="M20.4003 2.84175L22.0264 2.7716C22.7586 2.73954 23.2769 3.41695 23.0957 4.16851L22.7624 5.56342C22.6468 6.04442 22.2711 6.42922 21.8068 6.53945L15.3831 8.06062L15.3888 8.0486L20.3983 2.83774L20.4003 2.84175Z" fill="#38A4DD"/>
<path d="M11.782 12.2374C11.5122 12.488 11.1365 12.0971 11.3754 11.8166L18.6064 3.50925C18.9244 3.17856 19.4407 3.17856 19.7586 3.50925C20.0765 3.83994 20.0765 4.37705 19.7586 4.70774L11.782 12.2374Z" fill="#1B87C9"/>
<path opacity="0.2" d="M19.4098 0.400835C19.6006 0.400835 19.774 0.47499 19.8992 0.611273C20.0245 0.745553 20.088 0.931941 20.0803 1.13436L20.0129 2.82188C20.009 2.90004 20.0283 2.9762 20.0649 3.04033C20.0823 3.0704 20.1015 3.09645 20.1247 3.1205C20.1959 3.19666 20.2961 3.24276 20.4002 3.24276H20.4156L22.0379 3.17261H22.0706C22.2864 3.17261 22.4753 3.2648 22.6005 3.43115C22.7315 3.60351 22.7739 3.838 22.718 4.07048L22.3847 5.46539C22.3057 5.79608 22.0379 6.07065 21.7181 6.14681L16.3926 7.40944C16.3271 7.42547 16.2673 7.45754 16.2192 7.50363L13.0054 10.542L15.9148 7.199C15.9591 7.14889 15.9899 7.08676 16.0053 7.01862L17.2211 1.46706C17.2943 1.13436 17.5563 0.855783 17.8762 0.773612L19.2172 0.426889C19.2807 0.408852 19.3463 0.400835 19.4098 0.400835ZM19.4098 0C19.3154 0 19.2191 0.0120251 19.1228 0.0380793L17.7818 0.384802C17.3193 0.505052 16.9494 0.895866 16.8434 1.37887L15.6277 6.93044L11.3754 11.8146C11.1885 12.0331 11.3735 12.3157 11.5912 12.3157C11.6548 12.3157 11.7203 12.2916 11.78 12.2355L16.4793 7.80225L21.8048 6.53962C22.2672 6.42939 22.6448 6.04459 22.7604 5.56359L23.0937 4.16868C23.2691 3.43315 22.7778 2.77177 22.0726 2.77177C22.0572 2.77177 22.0398 2.77177 22.0225 2.77378L20.4002 2.84392H20.3963V2.83992L20.4638 1.1524C20.4907 0.491023 20.009 0 19.4098 0Z" fill="#434343"/>
<defs>
<radialGradient id="paint0_radial_456_2968" cx="0" cy="0" r="1" gradientUnits="userSpaceOnUse" gradientTransform="translate(9.29821 7.38144) scale(13.2267 13.7584)">
<stop offset="0.4707" stop-color="#EF5451"/>
<stop offset="0.8338" stop-color="#E53A35"/>
</radialGradient>
<radialGradient id="paint1_radial_456_2968" cx="0" cy="0" r="1" gradientUnits="userSpaceOnUse" gradientTransform="translate(10.5311 9.94376) scale(5.9058 6.1432)">
<stop offset="0.4707" stop-color="#EF5451"/>
<stop offset="0.8338" stop-color="#E53A35"/>
</radialGradient>
</defs>
</svg>
