<svg width="24" height="24" viewBox="0 0 24 24" fill="none" xmlns="http://www.w3.org/2000/svg">
<path d="M5.76161 15.4901C3.63685 17.1631 1.71269 21.7955 5.84341 22.168C6.56789 22.2324 6.31276 22.5646 7.01193 22.9411C7.77341 23.3498 7.74225 22.772 8.38104 23.241C13.7679 27.2051 16.2413 13.7004 13.801 11.6408C11.9528 10.0806 5.62139 15.5888 5.76161 15.4901Z" fill="url(#paint0_linear_456_2930)"/>
<path d="M6.14136 8.12961C3.81795 6.76866 -1.06062 6.76665 0.236442 10.8374C0.464303 11.5501 0.0689537 11.4414 0.0105277 12.2527C-0.0537409 13.1365 0.193596 12.8667 0.283182 13.672C1.19073 21.8779 10.4746 15.6832 12.2625 12.7983C13.4894 10.8173 5.99724 8.03498 6.14136 8.12961Z" fill="url(#paint1_linear_456_2930)"/>
<path d="M9.07814 0.849919C8.56788 1.3653 8.4783 0.952593 7.74602 1.23847C6.94559 1.55052 7.38573 1.88874 6.6223 2.06993C0.185703 3.60804 7.65839 14.3325 12.9927 12.6716C17.324 11.3207 13.5653 -3.68185 9.07814 0.849919Z" fill="url(#paint2_linear_456_2930)"/>
<path d="M8.42188 8.87646C11.8437 10.5877 13.6218 13.1365 12.9927 13.5914C12.2605 14.1209 12.3169 11.8097 8.42188 8.87646Z" fill="url(#paint3_linear_456_2930)"/>
<path d="M9.95844 11.2283C10.1805 11.1196 10.2739 10.8417 10.1668 10.6062C10.0597 10.3706 9.7929 10.268 9.57088 10.3747C9.34886 10.4834 9.25538 10.7612 9.36249 10.9968C9.46961 11.2343 9.73642 11.337 9.95844 11.2283Z" fill="url(#paint4_linear_456_2930)"/>
<path d="M9.05487 10.5437C9.27689 10.435 9.37037 10.1572 9.26326 9.92162C9.15615 9.68607 8.88933 9.58339 8.66732 9.69009C8.4453 9.79881 8.35181 10.0766 8.45893 10.3122C8.56604 10.5477 8.83286 10.6524 9.05487 10.5437Z" fill="url(#paint5_linear_456_2930)"/>
<path d="M11.3315 10.1692C11.5535 10.0605 11.647 9.78265 11.5399 9.5471C11.4328 9.31156 11.1659 9.20888 10.9439 9.31558C10.7219 9.4243 10.6284 9.70212 10.7355 9.93767C10.8427 10.1752 11.1095 10.2779 11.3315 10.1692Z" fill="#FFD54F"/>
<path d="M10.4045 9.60767C10.6265 9.49895 10.72 9.22113 10.6129 8.98558C10.5058 8.75003 10.2389 8.64736 10.0169 8.75406C9.79491 8.86277 9.70142 9.1406 9.80854 9.37615C9.91565 9.61169 10.1825 9.71638 10.4045 9.60767Z" fill="#FFECB3"/>
<path d="M9.46967 8.86646C9.69169 8.75774 9.78517 8.47992 9.67805 8.24437C9.57094 8.00882 9.30413 7.90615 9.08211 8.01285C8.86009 8.12156 8.76661 8.39939 8.87372 8.63494C8.97889 8.87048 9.2457 8.97517 9.46967 8.86646Z" fill="#FFD54F"/>
<path d="M8.61664 8.21021C8.83866 8.10149 8.93214 7.82367 8.82503 7.58812C8.71791 7.35257 8.4511 7.2499 8.22908 7.3566C8.00706 7.46531 7.91358 7.74314 8.0207 7.97869C8.12781 8.21423 8.39462 8.31892 8.61664 8.21021Z" fill="url(#paint6_linear_456_2930)"/>
<path d="M7.71503 8.67945C7.93705 8.57073 8.03053 8.29291 7.92342 8.05736C7.8163 7.82181 7.54949 7.71914 7.32747 7.82584C7.10545 7.93455 7.01197 8.21238 7.11909 8.44792C7.2262 8.68347 7.49301 8.78816 7.71503 8.67945Z" fill="url(#paint7_linear_456_2930)"/>
<path d="M8.16167 9.80609C8.38363 9.69832 8.47683 9.42006 8.36984 9.18457C8.26285 8.94908 7.99617 8.84554 7.77421 8.95331C7.55225 9.06108 7.45905 9.33934 7.56604 9.57483C7.67304 9.81031 7.93971 9.91385 8.16167 9.80609Z" fill="url(#paint8_linear_456_2930)"/>
<path d="M19.8326 21.6586C20.5395 21.3204 20.9349 20.5352 21.3322 19.7581C21.784 18.8763 21.2582 18.8964 21.8424 18.2743C26.7755 13.0259 15.3338 10.2295 12.9772 12.7219C12.1417 13.6057 12.2352 16.7866 12.9402 18.6528C14.2762 22.1941 15.139 23.9013 19.8326 21.6586Z" fill="url(#paint9_linear_456_2930)"/>
<path d="M22.9972 7.57616C22.8433 6.6984 22.187 6.66015 22.0332 5.70185C21.8774 4.74154 21.1821 5.42 20.6602 4.71134C16.4029 -1.07467 11.0316 9.44645 13.2381 12.3958C15.0026 14.7553 24.1735 14.2601 22.9972 7.57616Z" fill="url(#paint10_linear_456_2930)"/>
<path opacity="0.2" d="M10.8153 0.638636C12.0286 0.638636 13.3354 2.61764 13.9937 5.45024C14.0462 5.67975 14.2235 5.8549 14.4474 5.90121C14.4864 5.90926 14.5234 5.91329 14.5623 5.91329C14.7474 5.91329 14.9226 5.82269 15.0356 5.66365C15.9529 4.35908 16.989 3.64035 17.953 3.64035C18.7476 3.64035 19.513 4.13561 20.2316 5.11202C20.6133 5.63143 21.0846 5.69586 21.367 5.73411C21.4001 5.73814 21.443 5.74418 21.4741 5.75022C21.48 5.77035 21.4858 5.79853 21.4917 5.83477C21.5988 6.49511 21.9045 6.85548 22.1266 7.11921C22.3038 7.32858 22.4109 7.45542 22.4576 7.71714C22.9173 10.3323 21.5871 11.659 20.3894 12.3093C20.1927 12.416 20.0719 12.6274 20.0778 12.8569C20.0836 13.0864 20.2121 13.2918 20.4127 13.3904C21.6144 13.9722 22.3505 14.7272 22.4907 15.5123C22.6173 16.225 22.2707 17.0243 21.4605 17.8859C21.0184 18.357 20.9853 18.6791 20.9911 18.9952C20.9931 19.1281 20.995 19.2308 20.8529 19.5086L20.8353 19.5428C20.4789 20.2374 20.142 20.8957 19.624 21.1433C18.2802 21.7856 17.2538 22.0976 16.4846 22.0976C15.5127 22.0976 14.9148 21.6144 14.2838 20.3139C14.1845 20.1085 13.982 19.9817 13.7619 19.9817H13.7385C13.5087 19.9918 13.3062 20.1387 13.2205 20.3582C12.7745 21.4916 11.8046 23.3961 10.3206 23.3961C9.83373 23.3961 9.3079 23.1908 8.7548 22.7841C8.46851 22.5747 8.21339 22.4761 7.95047 22.4761C7.82972 22.4761 7.72845 22.4962 7.65639 22.5123C7.6077 22.5224 7.58044 22.5284 7.55902 22.5284C7.51033 22.5284 7.42269 22.4962 7.31752 22.4399C7.11887 22.3332 7.05266 22.2506 6.96891 22.1439C6.76637 21.8882 6.53267 21.6547 5.93088 21.6003C5.05254 21.5218 4.47412 21.2319 4.20926 20.7387C3.88597 20.1347 4.00866 19.1382 4.53644 18.0712C4.62993 17.8819 4.62019 17.6564 4.51307 17.4773C4.40596 17.3001 4.219 17.1934 4.01645 17.1934H4.00672H3.9366C2.15656 17.1934 1.16332 16.0297 0.898454 13.638C0.851713 13.2173 0.766021 13.0099 0.674487 12.8166C0.627746 12.718 0.604376 12.6677 0.627746 12.3314C0.645274 12.1019 0.692015 12.0053 0.752389 11.8845C0.898454 11.5906 1.01531 11.2785 0.826395 10.6846C0.557635 9.84109 0.579058 9.18679 0.888716 8.74388C1.23927 8.24259 2.01634 7.9547 3.01932 7.9547C3.56657 7.9547 4.15083 8.03925 4.70977 8.20031C4.76236 8.2144 4.81494 8.22246 4.86558 8.22246C5.03891 8.22246 5.20445 8.14394 5.3174 8.001C5.46347 7.81578 5.49074 7.55809 5.38557 7.34469C4.7312 6.01596 4.57734 4.82614 4.95127 3.99468C5.24145 3.35246 5.85882 2.91559 6.78779 2.69414C7.36621 2.55523 7.55901 2.29753 7.70703 2.04387C7.75961 1.95528 7.78103 1.91905 7.98552 1.83852C8.15301 1.77208 8.25623 1.76403 8.34192 1.76403C8.37503 1.76403 8.40619 1.76604 8.43735 1.76604C8.47825 1.76806 8.5172 1.76806 8.55615 1.76806C8.92034 1.76806 9.20858 1.63317 9.52213 1.31709C9.96811 0.86613 10.4024 0.638636 10.8153 0.638636ZM10.8153 0.034668C10.2719 0.034668 9.69935 0.292361 9.11315 0.884249C8.8697 1.12986 8.72364 1.16409 8.55615 1.16409C8.48994 1.16409 8.42177 1.15805 8.34387 1.15805C8.2017 1.15805 8.02837 1.17617 7.78103 1.27079C6.9806 1.58284 7.42074 1.92106 6.65731 2.10225C3.83144 2.77869 3.68732 5.22476 4.86558 7.61647C4.27158 7.44535 3.63279 7.34872 3.01932 7.34872C1.10489 7.34872 -0.550511 8.29292 0.2694 10.8719C0.497262 11.5845 0.101913 11.4758 0.0434867 12.2872C-0.0207819 13.171 0.226555 12.9012 0.316141 13.7065C0.651117 16.7283 2.1215 17.7974 3.93466 17.7974H4.01451C3.06216 19.722 3.06606 21.9486 5.87829 22.2023C6.60278 22.2667 6.34765 22.5989 7.04681 22.9754C7.27468 23.0982 7.43243 23.1324 7.55707 23.1324C7.71092 23.1324 7.81804 23.0801 7.94852 23.0801C8.06537 23.0801 8.20365 23.1203 8.41398 23.2753C9.09757 23.7786 9.73246 24.0001 10.3167 24.0001C11.8261 24.0001 12.9965 22.5264 13.758 20.5857C14.4046 21.9144 15.1427 22.7036 16.4807 22.7036C17.3278 22.7036 18.4126 22.3875 19.8655 21.695C20.5724 21.3567 20.9678 20.5716 21.3651 19.7945C21.8169 18.9127 21.2911 18.9328 21.8753 18.3107C24.1812 15.8566 22.9075 13.94 20.6581 12.8468C22.3349 11.9348 23.4937 10.2578 23.0283 7.61245C22.8744 6.73468 22.2181 6.69643 22.0642 5.73814C21.9084 4.77783 21.2132 5.45628 20.6912 4.74763C19.7993 3.53567 18.8567 3.0384 17.9472 3.0384C16.6871 3.0384 15.4874 3.99066 14.5584 5.30932C13.9158 2.52503 12.5057 0.034668 10.8153 0.034668Z" fill="url(#paint11_linear_456_2930)"/>
<defs>
<linearGradient id="paint0_linear_456_2930" x1="14.9262" y1="12.7359" x2="5.23348" y2="22.6529" gradientUnits="userSpaceOnUse">
<stop offset="0.0098938" stop-color="#8A0032"/>
<stop offset="0.1821" stop-color="#8E0034"/>
<stop offset="0.4055" stop-color="#FF005D"/>
<stop offset="0.4397" stop-color="#FF1368"/>
<stop offset="0.5501" stop-color="#FF4C87"/>
<stop offset="0.6572" stop-color="#FF7CA2"/>
<stop offset="0.7583" stop-color="#FFA1B6"/>
<stop offset="0.8518" stop-color="#FFBBC5"/>
<stop offset="0.9352" stop-color="#FFCBCE"/>
<stop offset="1" stop-color="#FFD1D1"/>
</linearGradient>
<linearGradient id="paint1_linear_456_2930" x1="12.5985" y1="8.45331" x2="4.90884" y2="18.8328" gradientUnits="userSpaceOnUse">
<stop offset="0.0098938" stop-color="#8A0032"/>
<stop offset="0.1821" stop-color="#8E0034"/>
<stop offset="0.4055" stop-color="#FF005D"/>
<stop offset="0.4397" stop-color="#FF1368"/>
<stop offset="0.5501" stop-color="#FF4C87"/>
<stop offset="0.6572" stop-color="#FF7CA2"/>
<stop offset="0.7583" stop-color="#FFA1B6"/>
<stop offset="0.8518" stop-color="#FFBBC5"/>
<stop offset="0.9352" stop-color="#FFCBCE"/>
<stop offset="1" stop-color="#FFD1D1"/>
</linearGradient>
<linearGradient id="paint2_linear_456_2930" x1="5.75149" y1="0.120677" x2="14.2523" y2="9.30971" gradientUnits="userSpaceOnUse">
<stop stop-color="#FF005D"/>
<stop offset="0.0218" stop-color="#FF0962"/>
<stop offset="0.1619" stop-color="#FF3D7F"/>
<stop offset="0.304" stop-color="#FF6B98"/>
<stop offset="0.4454" stop-color="#FF90AD"/>
<stop offset="0.5861" stop-color="#FFACBD"/>
<stop offset="0.7259" stop-color="#FFC1C8"/>
<stop offset="0.8643" stop-color="#FFCDCF"/>
<stop offset="1" stop-color="#FFD1D1"/>
</linearGradient>
<linearGradient id="paint3_linear_456_2930" x1="13.1936" y1="9.39864" x2="9.52979" y2="13.4838" gradientUnits="userSpaceOnUse">
<stop offset="0.0098938" stop-color="#8A0032"/>
<stop offset="0.1821" stop-color="#8E0034"/>
<stop offset="0.4055" stop-color="#FF005D"/>
<stop offset="0.4397" stop-color="#FF1368"/>
<stop offset="0.5501" stop-color="#FF4C87"/>
<stop offset="0.6572" stop-color="#FF7CA2"/>
<stop offset="0.7583" stop-color="#FFA1B6"/>
<stop offset="0.8518" stop-color="#FFBBC5"/>
<stop offset="0.9352" stop-color="#FFCBCE"/>
<stop offset="1" stop-color="#FFD1D1"/>
</linearGradient>
<linearGradient id="paint4_linear_456_2930" x1="10.2256" y1="10.4349" x2="9.50543" y2="11.214" gradientUnits="userSpaceOnUse">
<stop offset="0.0098938" stop-color="#8A0032"/>
<stop offset="0.1821" stop-color="#8E0034"/>
<stop offset="0.4055" stop-color="#FF005D"/>
<stop offset="0.4397" stop-color="#FF1368"/>
<stop offset="0.5501" stop-color="#FF4C87"/>
<stop offset="0.6572" stop-color="#FF7CA2"/>
<stop offset="0.7583" stop-color="#FFA1B6"/>
<stop offset="0.8518" stop-color="#FFBBC5"/>
<stop offset="0.9352" stop-color="#FFCBCE"/>
<stop offset="1" stop-color="#FFD1D1"/>
</linearGradient>
<linearGradient id="paint5_linear_456_2930" x1="9.32206" y1="9.75027" x2="8.60213" y2="10.5294" gradientUnits="userSpaceOnUse">
<stop offset="0.0098938" stop-color="#8A0032"/>
<stop offset="0.1821" stop-color="#8E0034"/>
<stop offset="0.4055" stop-color="#FF005D"/>
<stop offset="0.4397" stop-color="#FF1368"/>
<stop offset="0.5501" stop-color="#FF4C87"/>
<stop offset="0.6572" stop-color="#FF7CA2"/>
<stop offset="0.7583" stop-color="#FFA1B6"/>
<stop offset="0.8518" stop-color="#FFBBC5"/>
<stop offset="0.9352" stop-color="#FFCBCE"/>
<stop offset="1" stop-color="#FFD1D1"/>
</linearGradient>
<linearGradient id="paint6_linear_456_2930" x1="8.88383" y1="7.41677" x2="8.1639" y2="8.19589" gradientUnits="userSpaceOnUse">
<stop offset="0.0098938" stop-color="#8A0032"/>
<stop offset="0.1821" stop-color="#8E0034"/>
<stop offset="0.4055" stop-color="#FF005D"/>
<stop offset="0.4397" stop-color="#FF1368"/>
<stop offset="0.5501" stop-color="#FF4C87"/>
<stop offset="0.6572" stop-color="#FF7CA2"/>
<stop offset="0.7583" stop-color="#FFA1B6"/>
<stop offset="0.8518" stop-color="#FFBBC5"/>
<stop offset="0.9352" stop-color="#FFCBCE"/>
<stop offset="1" stop-color="#FFD1D1"/>
</linearGradient>
<linearGradient id="paint7_linear_456_2930" x1="7.98222" y1="7.88601" x2="7.26229" y2="8.66513" gradientUnits="userSpaceOnUse">
<stop offset="0.0098938" stop-color="#8A0032"/>
<stop offset="0.1821" stop-color="#8E0034"/>
<stop offset="0.4055" stop-color="#FF005D"/>
<stop offset="0.4397" stop-color="#FF1368"/>
<stop offset="0.5501" stop-color="#FF4C87"/>
<stop offset="0.6572" stop-color="#FF7CA2"/>
<stop offset="0.7583" stop-color="#FFA1B6"/>
<stop offset="0.8518" stop-color="#FFBBC5"/>
<stop offset="0.9352" stop-color="#FFCBCE"/>
<stop offset="1" stop-color="#FFD1D1"/>
</linearGradient>
<linearGradient id="paint8_linear_456_2930" x1="8.23132" y1="8.84483" x2="7.90978" y2="9.86869" gradientUnits="userSpaceOnUse">
<stop offset="0.0098938" stop-color="#8A0032"/>
<stop offset="0.1821" stop-color="#8E0034"/>
<stop offset="0.4055" stop-color="#FF005D"/>
<stop offset="0.4397" stop-color="#FF1368"/>
<stop offset="0.5501" stop-color="#FF4C87"/>
<stop offset="0.6572" stop-color="#FF7CA2"/>
<stop offset="0.7583" stop-color="#FFA1B6"/>
<stop offset="0.8518" stop-color="#FFBBC5"/>
<stop offset="0.9352" stop-color="#FFCBCE"/>
<stop offset="1" stop-color="#FFD1D1"/>
</linearGradient>
<linearGradient id="paint9_linear_456_2930" x1="13.9848" y1="11.9019" x2="21.0018" y2="20.7917" gradientUnits="userSpaceOnUse">
<stop stop-color="#FF005D"/>
<stop offset="0.0218" stop-color="#FF0962"/>
<stop offset="0.1619" stop-color="#FF3D7F"/>
<stop offset="0.304" stop-color="#FF6B98"/>
<stop offset="0.4454" stop-color="#FF90AD"/>
<stop offset="0.5861" stop-color="#FFACBD"/>
<stop offset="0.7259" stop-color="#FFC1C8"/>
<stop offset="0.8643" stop-color="#FFCDCF"/>
<stop offset="1" stop-color="#FFD1D1"/>
</linearGradient>
<linearGradient id="paint10_linear_456_2930" x1="14.283" y1="3.10277" x2="21.1959" y2="11.7592" gradientUnits="userSpaceOnUse">
<stop stop-color="#FF005D"/>
<stop offset="0.0218" stop-color="#FF0962"/>
<stop offset="0.1619" stop-color="#FF3D7F"/>
<stop offset="0.304" stop-color="#FF6B98"/>
<stop offset="0.4454" stop-color="#FF90AD"/>
<stop offset="0.5861" stop-color="#FFACBD"/>
<stop offset="0.7259" stop-color="#FFC1C8"/>
<stop offset="0.8643" stop-color="#FFCDCF"/>
<stop offset="1" stop-color="#FFD1D1"/>
</linearGradient>
<linearGradient id="paint11_linear_456_2930" x1="23.5049" y1="2.64673" x2="5.14649" y2="22.7754" gradientUnits="userSpaceOnUse">
<stop offset="0.0098938" stop-color="#8A0032"/>
<stop offset="0.1821" stop-color="#8E0034"/>
<stop offset="0.4055" stop-color="#FF005D"/>
<stop offset="0.4397" stop-color="#FF1368"/>
<stop offset="0.5501" stop-color="#FF4C87"/>
<stop offset="0.6572" stop-color="#FF7CA2"/>
<stop offset="0.7583" stop-color="#FFA1B6"/>
<stop offset="0.8518" stop-color="#FFBBC5"/>
<stop offset="0.9352" stop-color="#FFCBCE"/>
<stop offset="1" stop-color="#FFD1D1"/>
</linearGradient>
</defs>
</svg>
