<svg width="25" height="24" viewBox="0 0 25 24" fill="none" xmlns="http://www.w3.org/2000/svg">
<path d="M0.0185547 11.6569L5.50427 6.85693L16.4757 7.54265L17.1614 18.5141L12.3614 23.9998C12.3614 23.9998 12.3621 19.8862 8.24713 15.7712C4.13215 11.6562 0.0185547 11.6569 0.0185547 11.6569Z" fill="#A0041E"/>
<path d="M1.33767e-05 24.0002C1.33767e-05 24.0002 -0.0246723 18.5289 2.04687 16.4574C4.11841 14.3858 9.61853 14.5285 9.61853 14.5285C9.61853 14.5285 9.61784 19.8859 7.5607 21.9431C5.50356 24.0002 1.33767e-05 24.0002 1.33767e-05 24.0002Z" fill="#FFAC33"/>
<path d="M5.5036 21.2572C7.01844 21.2572 8.24646 20.0292 8.24646 18.5143C8.24646 16.9995 7.01844 15.7715 5.5036 15.7715C3.98876 15.7715 2.76074 16.9995 2.76074 18.5143C2.76074 20.0292 3.98876 21.2572 5.5036 21.2572Z" fill="#FFCC4D"/>
<path d="M24.0179 0C24.0179 0 17.1608 0 8.93222 6.85714C4.81793 10.2857 4.81793 16.4571 6.18936 17.8286C7.56079 19.2 13.7322 19.2 17.1608 15.0857C24.0179 6.85714 24.0179 0 24.0179 0Z" fill="#55ACEE"/>
<path d="M17.8463 3.42871C16.7334 3.42871 15.7802 4.09454 15.3496 5.047C15.6938 4.89134 16.073 4.80014 16.4749 4.80014C17.9896 4.80014 19.2177 6.02825 19.2177 7.543C19.2177 7.94483 19.1265 8.32403 18.9716 8.66757C19.924 8.23763 20.5892 7.28448 20.5892 6.17157C20.5892 4.65683 19.361 3.42871 17.8463 3.42871Z" fill="black"/>
<path d="M4.8186 19.2C4.8186 19.2 4.8186 16.4571 5.50432 15.7714C6.19003 15.0857 14.4193 8.22922 15.1043 8.91425C15.7893 9.59928 8.9322 17.8285 8.24649 18.5142C7.56077 19.2 4.8186 19.2 4.8186 19.2Z" fill="#A0041E"/>
</svg>
