<svg width="24" height="24" viewBox="0 0 24 24" fill="none" xmlns="http://www.w3.org/2000/svg">
<path d="M7.80707 21.2248L0.7229 21.8248L2.92767 1.8748L9.79497 1.4248L7.80707 21.2248Z" fill="#919191"/>
<path d="M15.6865 23.2498L7.80713 21.2248L9.79503 1.4248L14.7829 3.6748L15.6865 23.2498Z" fill="#BBC3C7"/>
<path d="M22.409 20.7L15.6863 23.25L14.7827 3.675L20.2043 0.75L22.409 20.7Z" fill="#DFE9EF"/>
<path d="M7.98775 19.5376L2.45776 19.9876L4.15652 3.1876L9.65036 2.8501L7.98775 19.5376Z" fill="#5DF6FF"/>
<path d="M15.6141 21.7501L7.98779 19.5376L9.6504 2.8501L14.8551 5.1001L15.6141 21.7501Z" fill="#00C0CF"/>
<path d="M20.9271 19.6874L15.614 21.7499L14.855 5.0999L19.1561 2.9624L20.9271 19.6874Z" fill="#5DF6FF"/>
<g opacity="0.7">
<path d="M7.80706 13.5C7.69863 13.5375 7.5902 13.6125 7.51791 13.6875L7.55405 13.725C6.86732 15.0375 7.95164 15.4875 7.95164 15.4875C7.51791 17.775 8.4215 18.525 8.4215 18.525C8.20464 16.8 9.50581 15.675 9.50581 15.675C9.86725 13.9125 8.31307 13.575 7.80706 13.5Z" fill="#F361F5"/>
<path d="M7.37339 13.3497C6.72281 12.8997 6.72281 12.1872 6.72281 12.1872C7.80712 12.1872 8.99986 10.5372 8.99986 10.5372C8.2047 7.91221 7.8794 10.1247 7.8794 10.1247C6.72281 8.84971 8.2047 8.24971 8.2047 8.24971C7.30111 7.87471 6.90352 6.82471 6.90352 6.82471C6.86738 7.49971 6.57823 7.46221 6.57823 7.46221C4.51804 6.29971 4.1566 8.17471 4.1566 8.17471C4.4819 9.18721 3.79517 9.29971 3.79517 9.29971C4.4819 9.41221 4.84333 8.51221 4.84333 8.51221C6.25294 9.18721 5.49392 11.6622 5.49392 11.6622C6.03608 11.9622 6.18065 13.0122 6.18065 13.0122C6.57823 13.1247 6.93967 13.3497 7.22882 13.5372C7.26496 13.4247 7.30111 13.3872 7.37339 13.3497Z" fill="#EDBA53"/>
<path d="M9.5419 6.03751C9.5419 6.03751 8.92746 5.62501 7.91544 6.26251C7.91544 6.26251 7.66243 8.62501 9.5419 6.03751Z" fill="#EEF8FB"/>
<path d="M11.06 6.56221C10.2648 5.21221 8.96362 7.0497 8.96362 7.0497C9.43349 7.4247 9.46964 7.76221 9.39735 8.06221C9.07205 9.18721 9.50578 9.52471 9.50578 9.52471C9.75878 8.58721 10.6262 8.43721 10.6262 8.43721C10.5178 7.57471 11.06 6.56221 11.06 6.56221Z" fill="#5F5CFF"/>
<path d="M13.2647 12.6372C13.1924 12.6747 13.1201 12.6747 13.0478 12.6372C12.8671 12.4497 12.7587 12.2247 12.6503 11.9997C12.6141 11.9622 12.6141 11.9247 12.6141 11.8872C11.9997 11.6622 10.8069 11.4372 10.6262 13.1622C10.6262 13.1622 10.8431 14.3247 11.6021 13.7247C11.6021 13.7247 12.4334 13.8747 12.1081 15.4122C12.1081 15.4122 12.2527 16.6122 12.9756 16.4997C12.9756 16.4997 13.1563 14.7747 14.096 13.4247C14.0599 13.4622 13.6984 13.8372 13.2647 12.6372Z" fill="#FF7033"/>
<path d="M19.2647 6.7875C19.2647 6.7875 17.4936 7.425 15.5419 7.2375C15.5419 7.2375 15.7226 6.6375 15.0359 6.5625C15.0359 6.5625 14.1323 7.6875 14.5299 8.325C14.5299 8.325 14.3491 9.45 14.1323 7.8C14.1323 7.8 13.7708 8.775 13.2287 8.55C13.2287 8.55 13.0841 9.525 12.7588 8.8875C12.7588 8.8875 13.0118 9 13.0841 8.7C13.0841 8.7 12.3251 7.9125 11.8914 9.1125C11.8914 9.1125 11.5299 9.2625 11.6745 9.7875C11.6745 9.7875 11.9275 9.3375 12.0721 10.0125C12.0721 10.0125 12.2167 9.9 12.2528 9.0375C12.2528 9.0375 12.6142 8.85 12.3251 9.5625C12.3251 9.5625 13.1203 9.5625 11.8914 10.275C11.8914 10.275 11.8191 10.275 11.7829 10.0125C11.7829 10.0125 11.6022 10.65 11.2046 10.875C11.2046 10.875 11.3131 11.1375 11.0239 11.25C11.0239 11.25 10.8793 11.6625 11.2408 11.6625C11.2408 11.6625 11.5661 10.725 12.1805 11.475C12.1805 11.475 12.2889 11.4375 12.1082 11.0625C12.1082 11.0625 12.4335 11.175 12.542 11.6625C12.542 11.6625 12.7227 11.625 12.7588 11.2125C12.7588 11.2125 13.0118 10.65 13.4094 11.325C13.4094 11.325 12.8672 11.175 12.7227 11.7C12.7227 11.7 12.9757 11.5875 13.1203 11.7375C13.1203 11.7375 13.1203 12 12.9757 12.075C13.048 12.1875 13.1203 12.3375 13.2287 12.4125C13.301 12.4875 13.301 12.5625 13.2648 12.6375C13.554 13.125 14.06 13.725 14.4576 12.75C14.4576 12.75 13.9516 13.0125 13.807 12.2625C13.807 12.2625 15.072 12.4125 15.3973 13.725C15.3973 13.725 15.7587 13.4625 15.8672 12.6C15.8672 12.6 16.3009 12.6375 16.8069 13.725C16.8069 13.725 17.0238 13.6875 16.9153 12.975C16.9153 12.975 17.7466 12.6375 17.2768 11.25C17.2768 11.25 17.9635 12.1875 17.7466 10.9875C17.7466 10.9875 18.5057 10.0875 17.6021 9.4875C17.6021 9.4875 17.6382 8.8125 18.1804 8.925C18.1804 8.925 18.7225 7.5375 18.4695 9.1875C18.4695 9.1875 18.4695 9.525 18.831 9.8625C18.831 9.8625 18.9755 9.3375 18.7225 8.7375C18.7948 8.6625 19.337 7.65 19.2647 6.7875Z" fill="#6C732D"/>
<path d="M11.5299 10.4248C11.6745 10.0873 11.2046 9.74981 11.2046 9.74981C11.2769 10.4998 11.3853 10.7248 11.5299 10.4248ZM10.9516 10.4623C10.9516 10.4623 11.1685 10.4248 11.1323 10.1623C11.1323 10.1623 10.9516 10.1623 10.9516 10.4623ZM10.8793 8.9248C10.8793 8.9248 10.301 8.92481 10.5179 9.22481C10.6986 9.48731 10.8793 8.9248 10.8793 8.9248Z" fill="#F361F5"/>
<path d="M13.807 15.9371C13.807 15.9371 13.9878 15.5996 13.9878 15.0371C13.9878 15.0371 13.4095 15.6746 13.807 15.9371Z" fill="#EDFF54"/>
<path d="M17.4937 13.7246C17.4937 13.7246 17.0962 14.0996 17.1685 14.4371C17.2407 14.7746 17.6022 14.3621 17.4937 13.7246Z" fill="#EEF8FB"/>
<path d="M19.1563 14.925C19.337 14.625 18.1804 14.25 18.1804 14.25C18.3973 14.55 18.9756 15.1875 19.1563 14.925Z" fill="#EDFF54"/>
<path d="M17.8189 14.9624C18.108 14.5124 16.9875 14.7374 16.9875 14.7374C16.9875 14.7374 17.7104 15.1499 17.8189 14.9624Z" fill="#F361F5"/>
<path d="M18.2526 15.0748C18.2526 15.0748 18.0357 15.5623 17.2044 15.7498C17.2044 15.7498 17.3852 16.1248 17.2044 16.8748C17.2044 16.8748 18.0357 15.8623 18.5056 17.3248C18.5056 17.3248 18.9032 17.5498 19.1923 16.1998C19.1923 16.1998 18.8309 15.7123 18.7225 15.0373C18.7586 15.0373 18.6502 15.8998 18.2526 15.0748ZM17.8912 11.8123C17.8912 11.8123 18.8309 11.4748 18.4333 10.6873C18.4695 10.6498 18.5418 10.6123 18.5418 10.6123C18.1442 9.97481 18.2887 10.8748 18.2887 10.8748C18.3249 10.7998 18.361 10.7623 18.361 10.7248C18.361 11.0248 18.3249 11.4373 17.8912 11.8123ZM8.16851 8.81231C8.16851 8.81231 8.85524 9.82481 8.92753 8.69981C8.96367 8.43731 8.85524 8.3998 8.74681 8.3998C8.71066 7.6498 8.20465 7.4248 8.20465 7.4248C7.87936 7.6123 7.9155 7.87481 7.9155 7.87481C8.20465 7.91231 8.38537 8.2873 8.4938 8.58731C8.45766 8.69981 8.34923 8.81231 8.16851 8.81231Z" fill="#FF3333"/>
<path d="M11.3131 5.9623C11.53 5.5123 10.8794 4.9873 10.8794 4.9873C10.9517 6.0748 11.0963 6.4123 11.3131 5.9623Z" fill="#EDFF54"/>
<path d="M10.7708 5.5498C10.7708 5.5498 10.5178 5.5873 10.5178 5.9998C10.5178 5.9998 10.8431 5.9623 10.7708 5.5498Z" fill="white"/>
</g>
</svg>
