<svg width="48" height="48" viewBox="0 0 48 48" fill="none" xmlns="http://www.w3.org/2000/svg">
<rect width="48" height="48" rx="8" fill="url(#paint0_linear_456_2882)"/>
<path d="M25.0008 34.5007C25.0009 34.7563 25.0664 35.0076 25.1909 35.2308C25.3155 35.4541 25.495 35.6417 25.7124 35.7761C25.9299 35.9104 26.1781 35.987 26.4334 35.9985C26.6888 36.01 26.9428 35.956 27.1714 35.8418L33.1718 32.8416C33.421 32.7171 33.6305 32.5257 33.7771 32.2888C33.9236 32.052 34.0013 31.779 34.0014 31.5005V22.8539C34.0013 22.5983 33.9358 22.347 33.8113 22.1238C33.6867 21.9006 33.5072 21.7129 33.2898 21.5785C33.0723 21.4442 32.8241 21.3676 32.5688 21.3561C32.3135 21.3446 32.0594 21.3986 31.8308 21.5128L25.8304 24.513C25.5812 24.6375 25.3717 24.8289 25.2251 25.0658C25.0786 25.3026 25.0009 25.5756 25.0008 25.8541V34.5007ZM31.3177 18.4136C31.5666 18.2889 31.7758 18.0974 31.922 17.8606C32.0682 17.6237 32.1457 17.3509 32.1457 17.0725C32.1457 16.7942 32.0682 16.5213 31.922 16.2845C31.7758 16.0477 31.5666 15.8562 31.3177 15.7314L24.1712 12.1582C23.963 12.0542 23.7335 12 23.5007 12C23.2679 12 23.0384 12.0542 22.8302 12.1582L15.6837 15.7314C15.4348 15.8562 15.2256 16.0477 15.0794 16.2845C14.9332 16.5213 14.8557 16.7942 14.8557 17.0725C14.8557 17.3509 14.9332 17.6237 15.0794 17.8606C15.2256 18.0974 15.4348 18.2889 15.6837 18.4136L22.8302 21.9869C23.0384 22.0909 23.2679 22.1451 23.5007 22.1451C23.7335 22.1451 23.963 22.0909 24.1712 21.9869L31.3177 18.4136ZM15.1706 21.5128C14.942 21.3986 14.6879 21.3446 14.4326 21.3561C14.1773 21.3676 13.9291 21.4442 13.7116 21.5785C13.4942 21.7129 13.3147 21.9006 13.1901 22.1238C13.0656 22.347 13.0001 22.5983 13 22.8539V31.5005C13.0001 31.779 13.0778 32.052 13.2243 32.2888C13.3709 32.5257 13.5804 32.7171 13.8296 32.8416L19.83 35.8418C20.0586 35.956 20.3126 36.01 20.568 35.9985C20.8233 35.987 21.0715 35.9104 21.289 35.7761C21.5064 35.6417 21.6859 35.4541 21.8105 35.2308C21.935 35.0076 22.0005 34.7563 22.0006 34.5007V25.8541C22.0005 25.5756 21.9228 25.3026 21.7763 25.0658C21.6297 24.8289 21.4202 24.6375 21.171 24.513L15.1706 21.5128Z" fill="white"/>
<defs>
<linearGradient id="paint0_linear_456_2882" x1="24" y1="0" x2="24" y2="48" gradientUnits="userSpaceOnUse">
<stop stop-color="#1DA09E"/>
<stop offset="1" stop-color="#C7CA27"/>
</linearGradient>
</defs>
</svg>
