<svg width="24" height="24" viewBox="0 0 24 24" fill="none" xmlns="http://www.w3.org/2000/svg">
<path d="M21.6384 5.7887L14.7333 0.957529C12.8511 -0.361154 9.96202 -0.289226 8.15186 1.11337L2.14586 5.80069C0.947054 6.73576 0 8.65384 0 10.1643V18.436C0 21.493 2.48152 23.9865 5.53847 23.9865H18.4615C21.5185 23.9865 24 21.505 24 18.448V10.3201C24 8.7018 22.957 6.71178 21.6384 5.7887ZM12.8991 19.1913C12.8991 19.6828 12.4915 20.0904 12 20.0904C11.5085 20.0904 11.1009 19.6828 11.1009 19.1913V15.5949C11.1009 15.1033 11.5085 14.6958 12 14.6958C12.4915 14.6958 12.8991 15.1033 12.8991 15.5949V19.1913Z" fill="white"/>
</svg>
