<svg width="25" height="24" viewBox="0 0 25 24" fill="none" xmlns="http://www.w3.org/2000/svg">
<path d="M18.795 13.0952L21.9997 12.0434C22.3578 11.926 22.6144 11.6545 22.7149 11.3334L22.7182 11.3343L23.9704 7.38756C24.1492 6.81664 23.8074 6.21607 23.2071 6.04557C22.6069 5.87549 21.975 6.20058 21.7962 6.7715L20.7117 10.1903L18.2045 11.0132H6.04383L3.30617 10.1146L2.22165 6.69573C2.04283 6.12481 1.41096 5.79974 0.810707 5.9698C0.210454 6.13985 -0.131316 6.74087 0.0474787 7.31179L1.29966 11.2585L1.30291 11.2576C1.40344 11.5783 1.66006 11.8502 2.01814 11.9676L5.43749 13.0899C5.43051 13.2582 5.42724 13.4283 5.42724 13.5988C5.42724 14.0497 5.45193 14.4926 5.49894 14.9258L2.26073 16.3245C1.90405 16.4773 1.67075 16.7838 1.60883 17.1248L0.486112 22.7187C0.368328 23.3038 0.771577 23.8685 1.38674 23.9806C2.0019 24.0926 2.59557 23.7091 2.71341 23.124L3.72992 18.0585L5.94694 17.1009C6.95874 20.3598 9.34014 22.6492 12.1159 22.6492C14.8759 22.6492 17.2456 20.3864 18.2678 17.1581L20.2967 18.1373L21.4925 23.1577C21.6294 23.7379 22.2352 24.1029 22.8453 23.9722C23.4557 23.8415 23.839 23.2653 23.7016 22.6851L22.3959 17.201C22.3311 16.8848 22.1193 16.5996 21.7938 16.4432L18.7297 14.9643C18.7795 14.5188 18.8051 14.063 18.8051 13.5989C18.8051 13.4301 18.8019 13.2618 18.7949 13.0953L18.795 13.0952ZM12.0448 4.99093C11.6187 4.99093 11.2047 5.06626 10.8071 5.20754C10.6613 4.90016 10.529 4.61404 10.4075 4.35185C9.13907 1.60669 8.97376 1.24928 4.60211 0.0299501C4.19282 -0.0843282 3.76395 0.138463 3.64382 0.527328C3.5237 0.916193 3.75791 1.32456 4.1667 1.43884C7.84732 2.46549 7.97957 2.75116 8.99288 4.94401C9.13348 5.24874 9.28995 5.58665 9.47621 5.9742C8.32326 6.91983 7.41938 8.48148 6.95372 10.3705H17.1354C16.6702 8.48148 15.7664 6.91981 14.6134 5.9742C14.7996 5.58665 14.9557 5.24871 15.0967 4.94401C16.11 2.75118 16.2418 2.46551 19.9229 1.43884C20.3317 1.32456 20.5659 0.916193 20.4458 0.527328C20.3256 0.138463 19.8963 -0.0843282 19.4875 0.0299501C15.1153 1.24923 14.9505 1.60669 13.6815 4.35181C13.5605 4.61407 13.4282 4.90016 13.2825 5.20754C12.8848 5.06626 12.4704 4.99098 12.0448 4.99098L12.0448 4.99093ZM13.9618 7.14877C14.5309 7.14877 14.9924 7.58774 14.9924 8.12894C14.9924 8.66973 14.5309 9.10865 13.9619 9.10865C13.3933 9.10865 12.9318 8.66973 12.9318 8.12894C12.9318 7.58772 13.3933 7.14881 13.9619 7.14881L13.9618 7.14877ZM10.1272 7.14877C10.6962 7.14877 11.1576 7.58774 11.1576 8.12894C11.1576 8.66973 10.6962 9.10865 10.1272 9.10865C9.55812 9.10865 9.09711 8.66973 9.09711 8.12894C9.09711 7.58772 9.55814 7.14881 10.1272 7.14881L10.1272 7.14877Z" fill="url(#paint0_linear_456_2955)"/>
<defs>
<linearGradient id="paint0_linear_456_2955" x1="12.0089" y1="0" x2="12.0089" y2="24" gradientUnits="userSpaceOnUse">
<stop stop-color="#631F07"/>
<stop offset="0.953125" stop-color="#B55B08" stop-opacity="0.94"/>
</linearGradient>
</defs>
</svg>
