<svg width="24" height="24" viewBox="0 0 24 24" fill="none" xmlns="http://www.w3.org/2000/svg">
<path d="M2.19181 2C0.981274 2 0 2.9 0 4V12V16V22C0 23.1 0.981274 24 2.19181 24H17.5345C18.7455 24 19.7263 23.1 19.7263 22V16V12V8V4C19.7263 2.9 18.7455 2 17.5345 2H13.1509H2.19181Z" fill="#D6D8EC"/>
<path d="M3.2878 0C2.68253 0 2.19189 0.4 2.19189 1V4C2.19189 4.5 2.68253 5 3.2878 5C3.89307 5 4.38371 4.5 4.38371 4V1C4.38371 0.4 3.89307 0 3.2878 0ZM7.67142 0C7.06615 0 6.57552 0.4 6.57552 1V4C6.57552 4.5 7.06615 5 7.67142 5C8.27636 5 8.76733 4.5 8.76733 4V1C8.76733 0.4 8.27636 0 7.67142 0ZM12.055 0C11.4501 0 10.9591 0.4 10.9591 1V4C10.9591 4.5 11.4501 5 12.055 5C12.66 5 13.151 4.5 13.151 4V1C13.151 0.4 12.66 0 12.055 0ZM16.4387 0C15.8337 0 15.3428 0.4 15.3428 1V4C15.3428 4.5 15.8337 5 16.4387 5C17.0436 5 17.5346 4.5 17.5346 4V1C17.5346 0.4 17.0436 0 16.4387 0Z" fill="#ABBEBF"/>
<path d="M3.28784 15H16.4387V16H3.28784V15Z" fill="#ABBEBF"/>
<path d="M3.28784 12H16.4387V13H3.28784V12Z" fill="#ABBEBF"/>
<path d="M3.28784 9H16.4387V10H3.28784V9Z" fill="#ABBEBF"/>
<path d="M3.28784 18H7.67146V19H3.28784V18Z" fill="#ABBEBF"/>
<path d="M2.19189 4C2.19189 4.5 2.68253 5 3.2878 5C3.89307 5 4.38371 4.5 4.38371 4H2.19189ZM6.57552 4C6.57552 4.5 7.06615 5 7.67142 5C8.27636 5 8.76733 4.5 8.76733 4H6.57552ZM10.9591 4C10.9591 4.5 11.4501 5 12.055 5C12.66 5 13.151 4.5 13.151 4H10.9591ZM15.3428 4C15.3428 4.5 15.8337 5 16.4387 5C17.0436 5 17.5346 4.5 17.5346 4H15.3428Z" fill="#829698"/>
<path d="M0 21V22C0 23.1 0.981274 24 2.19181 24H17.5345C18.7455 24 19.7263 23.1 19.7263 22V21C19.7263 22.1 18.7455 23 17.5345 23H2.19181C0.981274 23 0 22.1 0 21Z" fill="#ABBEBF"/>
<path d="M17.7075 6.96582L8.95087 14.9562L8.40841 15.4511L7.63349 16.1582V18.9867H10.7332L11.5081 18.2796L12.0506 17.7846L20.8072 9.79426L17.7075 6.96582Z" fill="#ECF0F1"/>
<path d="M19.2573 8.38037L7.63344 18.987L10.7331 18.987L11.5081 18.2799L12.0505 17.7849L20.8072 9.79459L19.2573 8.38037Z" fill="#BDC3C7"/>
<path d="M16.9324 7.67334L20.0321 10.5018L11.5079 18.28L8.40819 15.4516L16.9324 7.67334Z" fill="#E67E22"/>
<path d="M21.5821 6.25895C20.7258 5.47759 19.3348 5.48113 18.4824 6.25895L17.7074 6.96606L20.8072 9.7945L21.5821 9.08739C22.4345 8.30957 22.4384 7.0403 21.5821 6.25895Z" fill="#829698"/>
<path d="M7.62866 17.0029L7.63329 18.9871L9.80775 18.9913L8.71821 17.9971L7.62866 17.0029Z" fill="#34495E"/>
<path d="M8.71826 17.9971L7.63335 18.987L9.80781 18.9913L8.71826 17.9971Z" fill="#C3D1DE"/>
<path d="M21.5821 6.25895C20.7258 5.47759 19.3348 5.48113 18.4824 6.25895L17.7074 6.96606L19.2573 8.38028L21.5821 6.25895Z" fill="#ABBEBF"/>
<path d="M18.4824 9.0874L20.0323 10.5016L11.5081 18.2798L9.95824 16.8656L18.4824 9.0874Z" fill="#D35400"/>
</svg>
