<svg width="24" height="24" viewBox="0 0 24 24" fill="none" xmlns="http://www.w3.org/2000/svg">
<path d="M10.3319 21.3254C16.038 21.3254 20.6638 16.5516 20.6638 10.6627C20.6638 4.77386 16.038 0 10.3319 0C4.62574 0 0 4.77386 0 10.6627C0 16.5516 4.62574 21.3254 10.3319 21.3254Z" fill="#919191"/>
<path d="M22.9229 20.0593C22.5445 19.3374 21.7418 18.9351 20.6639 18.9351C19.8497 18.9351 19.1502 19.2783 18.7374 19.87C18.3246 20.4617 18.2328 21.2546 18.4851 22.0475C18.9782 23.5859 19.8382 23.9291 20.3084 23.9883C20.3772 24.0001 20.446 24.0001 20.5263 24.0001C21.0308 24.0001 21.8106 23.7753 22.5674 22.6037C23.1752 21.6925 23.2898 20.7812 22.9229 20.0593Z" fill="#919191"/>
</svg>
