<svg width="24" height="24" viewBox="0 0 24 24" fill="none" xmlns="http://www.w3.org/2000/svg">
<path d="M23.132 14.7165C23.132 14.7165 22.5152 14.7416 22.0406 15.1907C21.5041 15.699 19.8332 17.0056 19.7236 17.1891C19.7369 17.8591 19.7458 18.9941 19.6805 19.5915C19.6088 20.2508 19.8769 20.7762 19.8769 20.7762C19.8769 20.7762 19.3451 20.4502 18.7117 20.5627C17.9691 20.6941 16.7839 20.6638 16.2125 20.6396C16.1641 20.6377 16.1198 20.6356 16.0812 20.6331C16.0614 20.6684 16.0407 20.7061 16.0186 20.7462C15.7035 21.3178 15.1215 22.3484 14.7574 22.8417C14.3686 23.3689 14.3379 23.9626 14.3379 23.9626C14.3379 23.9626 14.0435 23.3992 13.4453 23.1572C12.863 22.921 12.074 22.4278 11.5493 22.0801C11.0084 22.4526 10.2545 22.9556 9.80188 23.1875C9.22846 23.4823 8.94765 24 8.94765 24C8.94765 24 8.92344 23.36 8.49057 22.8677C8.01548 22.3282 7.44531 21.3754 7.13734 20.8353C6.48833 20.8991 5.44188 20.9882 4.87909 20.9658C4.23982 20.9413 3.75499 21.2581 3.75499 21.2581C3.75499 21.2581 4.02811 20.6834 3.8728 20.0364C3.69416 19.2925 3.63215 18.0968 3.61207 17.4914C3.02478 17.2222 2.00667 16.7421 1.5053 16.4244C0.959637 16.0779 0.387693 16.1082 0.387693 16.1082C0.387693 16.1082 0.896744 15.7452 1.06653 15.1025C1.30452 14.2012 2.01022 12.8027 2.17469 12.484C1.87971 12.0349 1.08867 10.8113 0.783064 10.1698C0.499011 9.57488 0 9.28353 0 9.28353C0 9.28353 0.61653 9.25903 1.09103 8.80991C1.79378 8.14389 3.2229 7.29773 3.41631 7.18438C3.40302 6.68471 3.37113 5.14128 3.45085 4.40909C3.52261 3.74889 3.25391 3.2241 3.25391 3.2241C3.25391 3.2241 3.78599 3.54914 4.41905 3.43763C5.22545 3.29548 6.55063 3.34174 7.04964 3.36656C7.3455 2.82829 7.98448 1.68588 8.37424 1.15803C8.76311 0.630789 8.79323 0.0370693 8.79323 0.0370693C8.79323 0.0370693 9.08762 0.60046 9.68584 0.842481C10.269 1.07868 11.0577 1.57222 11.5827 1.91994C12.1236 1.54741 12.8774 1.04437 13.3301 0.812459C13.9032 0.518662 14.1837 0 14.1837 0C14.1837 0 14.2079 0.639979 14.6408 1.13229C15.1159 1.67179 15.6867 2.62487 15.9952 3.16497C16.6442 3.10125 17.6901 3.01271 18.2523 3.03416C18.8756 3.05928 19.3516 2.75783 19.3755 2.74312C19.3602 2.77713 19.1086 3.33623 19.2586 3.96365C19.4372 4.7084 19.4989 5.9038 19.5193 6.50855C19.4789 6.48956 19.5211 6.55543 19.5193 6.50855C20.1066 6.77723 21.1247 7.2579 21.6258 7.57651C22.1723 7.923 22.7443 7.89206 22.7443 7.89206C22.7443 7.89206 22.2352 8.25509 22.0654 8.89783C21.8688 9.64166 21.3541 10.7237 21.0881 11.2586C21.1014 11.4244 22.0885 13.2827 22.3492 13.8308C22.6321 14.4248 23.132 14.7165 23.132 14.7165Z" fill="#919191"/>
<path d="M22.8688 11.9036C22.8688 11.9036 22.3016 12.0663 21.9561 12.5905C21.5652 13.1836 20.2893 14.7739 20.2261 14.969C20.379 15.5879 20.6262 16.639 20.6911 17.2079C20.7632 17.8359 21.1222 18.263 21.1222 18.263C21.1222 18.263 20.5603 18.081 19.9964 18.3285C19.335 18.6183 18.2289 18.8585 17.6935 18.9651C17.6484 18.9743 17.6067 18.9823 17.5704 18.989C17.5595 19.0261 17.548 19.0659 17.5359 19.1082C17.3637 19.7099 17.0401 20.7978 16.8062 21.3379C16.5561 21.915 16.6524 22.4729 16.6524 22.4729C16.6524 22.4729 16.2609 22.0171 15.6547 21.9276C15.0647 21.8403 14.2291 21.5609 13.669 21.3572C13.2455 21.825 12.6515 22.4625 12.2803 22.7802C11.8102 23.1834 11.6585 23.7271 11.6585 23.7271C11.6585 23.7271 11.5017 23.1386 10.9965 22.7802C10.4422 22.3871 9.7129 21.632 9.3137 21.2003C8.72492 21.4062 7.77267 21.7257 7.2456 21.8323C6.64738 21.954 6.26382 22.3577 6.26382 22.3577C6.26382 22.3577 6.3964 21.7628 6.11648 21.1976C5.79434 20.5478 5.48548 19.4522 5.33962 18.895C4.73815 18.778 3.69259 18.5629 3.1605 18.3815C2.58118 18.1836 2.05707 18.3411 2.05707 18.3411C2.05707 18.3411 2.45333 17.8889 2.47547 17.2544C2.50677 16.3642 2.86789 14.9068 2.95322 14.5741C2.58502 14.224 1.59379 13.2675 1.17538 12.7415C0.786805 12.2538 0.262695 12.0963 0.262695 12.0963C0.262695 12.0963 0.829915 11.9342 1.17538 11.4101C1.68768 10.6331 2.8357 9.52444 2.99161 9.37555C2.87438 8.91479 2.52035 7.48992 2.44033 6.79235C2.36829 6.1637 2.00835 5.73726 2.00835 5.73726C2.00835 5.73726 2.57025 5.91862 3.13422 5.6717C3.85262 5.35737 5.09188 5.10065 5.56019 5.01058C5.7217 4.44412 6.07426 3.23953 6.32494 2.66174C6.57504 2.08456 6.47789 1.52669 6.47789 1.52669C6.47789 1.52669 6.86943 1.98255 7.47562 2.072C8.06617 2.15931 8.90209 2.43871 9.46192 2.64244C9.88534 2.17463 10.4794 1.5371 10.8506 1.21941C11.3207 0.817164 11.4718 0.272461 11.4718 0.272461C11.4718 0.272461 11.6286 0.860973 12.1338 1.21941C12.6881 1.61247 13.418 2.36764 13.8178 2.79929C14.4066 2.59342 15.3582 2.2745 15.8847 2.16728C16.4685 2.04933 16.8467 1.6624 16.8659 1.6431C16.8588 1.67833 16.7428 2.25398 17.0138 2.80205C17.336 3.45275 17.6448 4.54798 17.7907 5.10463C17.7493 5.09605 17.8022 5.14752 17.7907 5.10463C18.3922 5.22104 19.4377 5.43672 19.9698 5.619C20.5497 5.81691 21.0741 5.65883 21.0741 5.65883C21.0741 5.65883 20.6779 6.11101 20.6557 6.74548C20.6294 7.48012 20.3796 8.60047 20.245 9.15712C20.2922 9.30815 21.5985 10.809 21.9558 11.2584C22.3438 11.7461 22.8688 11.9036 22.8688 11.9036Z" fill="#FFD000"/>
<path d="M17.6836 12C17.6836 12.2561 17.6703 12.5067 17.6381 12.7543C17.6219 12.9102 17.6006 13.0631 17.5711 13.2135C17.5389 13.3915 17.4987 13.567 17.4503 13.7395C17.3697 14.0373 17.2678 14.3268 17.1444 14.6053C17.0774 14.764 17.005 14.9171 16.9244 15.0645C16.868 15.1702 16.8116 15.2731 16.7473 15.3733C16.6052 15.6126 16.444 15.8408 16.2698 16.058C16.0982 16.2725 15.9131 16.4756 15.7144 16.6649C15.516 16.857 15.3066 17.0322 15.084 17.1909C14.9042 17.3272 14.7137 17.4498 14.5179 17.561C14.4725 17.5889 14.4267 17.614 14.3786 17.6388C14.1238 17.7751 13.858 17.8949 13.5846 17.9951C13.3082 18.0953 13.0265 18.1731 12.7342 18.2316C12.718 18.2371 12.6994 18.2399 12.6831 18.2426C12.3477 18.3067 11.999 18.3428 11.6449 18.3456C11.6181 18.3483 11.5912 18.3483 11.5643 18.3483C11.5375 18.3483 11.5106 18.3483 11.4837 18.3456C11.1297 18.3428 10.7836 18.3067 10.4482 18.2426C10.4293 18.2399 10.4134 18.2371 10.3971 18.2316C10.1048 18.1731 9.82045 18.0953 9.54673 17.9951C9.27301 17.8949 9.00756 17.7751 8.75274 17.6388C8.70432 17.6137 8.65885 17.5886 8.61337 17.561C8.41761 17.4498 8.22716 17.3272 8.04734 17.1909C7.8247 17.0322 7.61535 16.857 7.41693 16.6649C7.21851 16.4756 7.03337 16.2725 6.86152 16.058C6.68701 15.8408 6.52609 15.6126 6.38406 15.3733C6.3197 15.2731 6.2633 15.1702 6.2069 15.0645C6.12629 14.9171 6.05395 14.764 5.98692 14.6053C5.8635 14.3268 5.76163 14.0376 5.68102 13.7395C5.63259 13.567 5.59244 13.3915 5.56025 13.2135C5.53073 13.0631 5.50917 12.9102 5.49323 12.7543C5.46104 12.5064 5.44775 12.2561 5.44775 12C5.44775 11.9721 5.44775 11.9442 5.45041 11.9194C5.45041 11.8137 5.45307 11.7108 5.46104 11.6076C5.47433 11.3459 5.50386 11.0926 5.54962 10.8423C5.60602 10.5221 5.68633 10.2078 5.7885 9.90697C5.8824 9.62298 5.99785 9.34756 6.1319 9.08318C6.25798 8.82706 6.40296 8.58228 6.56389 8.34853C6.71684 8.11754 6.88573 7.90033 7.07087 7.69446C7.25069 7.49135 7.44646 7.29926 7.65285 7.1182C7.8622 6.94021 8.08218 6.77294 8.31279 6.62283C8.54871 6.46689 8.79556 6.33056 9.05304 6.21077C9.32144 6.08547 9.60018 5.97702 9.88748 5.89615C10.1934 5.80148 10.5126 5.7347 10.8371 5.69855C10.9525 5.6817 11.0703 5.67067 11.1884 5.66515C11.3119 5.65412 11.438 5.65137 11.564 5.65137C11.6928 5.65137 11.8189 5.65412 11.9423 5.66515C12.063 5.67067 12.1782 5.682 12.2937 5.69855C12.6208 5.7347 12.9374 5.80148 13.2433 5.89339C13.5303 5.97978 13.8093 6.08547 14.0777 6.21077C14.3352 6.33056 14.582 6.46689 14.8182 6.62283C15.0488 6.77325 15.2688 6.94021 15.4782 7.1182C15.6849 7.29926 15.8806 7.49104 16.0602 7.69446C16.2453 7.90033 16.4142 8.11754 16.5671 8.34853C16.7281 8.58228 16.873 8.82737 16.9991 9.08318C17.1332 9.34756 17.2486 9.62328 17.3425 9.90697C17.4444 10.2075 17.525 10.5221 17.5814 10.8423C17.6269 11.0929 17.6564 11.3459 17.67 11.6076C17.678 11.7105 17.6806 11.8134 17.6806 11.9194C17.6836 11.9446 17.6836 11.9721 17.6836 12Z" fill="#231209"/>
</svg>
